G04 MADE WITH FRITZING*
G04 WWW.FRITZING.ORG*
G04 DOUBLE SIDED*
G04 HOLES PLATED*
G04 CONTOUR ON CENTER OF CONTOUR VECTOR*
%ASAXBY*%
%FSLAX23Y23*%
%MOIN*%
%OFA0B0*%
%SFA1.0B1.0*%
%ADD10C,0.074000*%
%ADD11R,0.074000X0.074000*%
%ADD12R,0.118110X0.062992*%
%ADD13C,0.024000*%
%LNCOPPER0*%
G90*
G70*
G54D10*
X371Y715D03*
X371Y615D03*
X371Y515D03*
X371Y415D03*
X371Y315D03*
X471Y715D03*
X471Y615D03*
X471Y515D03*
X471Y415D03*
X471Y315D03*
X371Y715D03*
X371Y615D03*
X371Y515D03*
X371Y415D03*
X371Y315D03*
X471Y715D03*
X471Y615D03*
X471Y515D03*
X471Y415D03*
X471Y315D03*
G54D11*
X471Y715D03*
X471Y715D03*
G54D12*
X821Y160D03*
X821Y238D03*
X821Y317D03*
X821Y396D03*
X821Y475D03*
X821Y553D03*
X821Y632D03*
X821Y711D03*
X821Y790D03*
X821Y868D03*
G54D13*
X369Y242D02*
X768Y239D01*
D02*
X370Y284D02*
X369Y242D01*
D02*
X306Y416D02*
X306Y160D01*
D02*
X306Y160D02*
X768Y160D01*
D02*
X340Y415D02*
X306Y416D01*
D02*
X502Y315D02*
X768Y317D01*
D02*
X491Y400D02*
X768Y396D01*
D02*
X496Y396D02*
X491Y400D01*
D02*
X534Y479D02*
X768Y475D01*
D02*
X498Y499D02*
X534Y479D01*
D02*
X549Y553D02*
X768Y553D01*
D02*
X495Y596D02*
X549Y553D01*
D02*
X570Y633D02*
X768Y632D01*
D02*
X495Y695D02*
X570Y633D01*
D02*
X629Y711D02*
X768Y711D01*
D02*
X562Y782D02*
X629Y711D01*
D02*
X368Y782D02*
X562Y782D01*
D02*
X370Y746D02*
X368Y782D01*
D02*
X679Y790D02*
X768Y790D01*
D02*
X624Y828D02*
X679Y790D01*
D02*
X306Y828D02*
X624Y828D01*
D02*
X306Y612D02*
X306Y828D01*
D02*
X340Y614D02*
X306Y612D01*
D02*
X259Y868D02*
X768Y868D01*
D02*
X259Y514D02*
X259Y868D01*
D02*
X340Y514D02*
X259Y514D01*
G04 End of Copper0*
M02*