G04 MADE WITH FRITZING*
G04 WWW.FRITZING.ORG*
G04 DOUBLE SIDED*
G04 HOLES PLATED*
G04 CONTOUR ON CENTER OF CONTOUR VECTOR*
%ASAXBY*%
%FSLAX23Y23*%
%MOIN*%
%OFA0B0*%
%SFA1.0B1.0*%
%ADD10R,1.123170X1.030680X1.107170X1.014680*%
%ADD11C,0.008000*%
%ADD12R,0.001000X0.001000*%
%LNSILK1*%
G90*
G70*
G54D11*
X4Y1027D02*
X1119Y1027D01*
X1119Y4D01*
X4Y4D01*
X4Y1027D01*
D02*
G54D12*
X708Y976D02*
X712Y976D01*
X708Y975D02*
X712Y975D01*
X708Y974D02*
X712Y974D01*
X735Y974D02*
X739Y974D01*
X708Y973D02*
X712Y973D01*
X735Y973D02*
X739Y973D01*
X708Y972D02*
X712Y972D01*
X735Y972D02*
X739Y972D01*
X708Y971D02*
X712Y971D01*
X735Y971D02*
X739Y971D01*
X798Y971D02*
X798Y971D01*
X708Y970D02*
X712Y970D01*
X735Y970D02*
X739Y970D01*
X798Y970D02*
X800Y970D01*
X708Y969D02*
X712Y969D01*
X735Y969D02*
X739Y969D01*
X798Y969D02*
X801Y969D01*
X708Y968D02*
X712Y968D01*
X735Y968D02*
X739Y968D01*
X798Y968D02*
X803Y968D01*
X708Y967D02*
X712Y967D01*
X735Y967D02*
X739Y967D01*
X798Y967D02*
X805Y967D01*
X708Y966D02*
X712Y966D01*
X735Y966D02*
X739Y966D01*
X798Y966D02*
X806Y966D01*
X708Y965D02*
X712Y965D01*
X735Y965D02*
X739Y965D01*
X798Y965D02*
X808Y965D01*
X708Y964D02*
X712Y964D01*
X735Y964D02*
X739Y964D01*
X800Y964D02*
X810Y964D01*
X708Y963D02*
X712Y963D01*
X735Y963D02*
X739Y963D01*
X801Y963D02*
X812Y963D01*
X708Y962D02*
X712Y962D01*
X735Y962D02*
X739Y962D01*
X803Y962D02*
X813Y962D01*
X708Y961D02*
X712Y961D01*
X735Y961D02*
X739Y961D01*
X805Y961D02*
X815Y961D01*
X708Y960D02*
X712Y960D01*
X735Y960D02*
X739Y960D01*
X807Y960D02*
X817Y960D01*
X708Y959D02*
X712Y959D01*
X735Y959D02*
X739Y959D01*
X809Y959D02*
X818Y959D01*
X708Y958D02*
X712Y958D01*
X735Y958D02*
X739Y958D01*
X810Y958D02*
X820Y958D01*
X708Y957D02*
X712Y957D01*
X735Y957D02*
X739Y957D01*
X812Y957D02*
X822Y957D01*
X708Y956D02*
X712Y956D01*
X735Y956D02*
X739Y956D01*
X814Y956D02*
X823Y956D01*
X708Y955D02*
X712Y955D01*
X735Y955D02*
X739Y955D01*
X816Y955D02*
X825Y955D01*
X708Y954D02*
X712Y954D01*
X735Y954D02*
X739Y954D01*
X818Y954D02*
X827Y954D01*
X708Y953D02*
X712Y953D01*
X735Y953D02*
X739Y953D01*
X820Y953D02*
X828Y953D01*
X708Y952D02*
X712Y952D01*
X735Y952D02*
X739Y952D01*
X821Y952D02*
X830Y952D01*
X708Y951D02*
X767Y951D01*
X823Y951D02*
X857Y951D01*
X708Y950D02*
X768Y950D01*
X826Y950D02*
X857Y950D01*
X708Y949D02*
X768Y949D01*
X828Y949D02*
X857Y949D01*
X708Y948D02*
X768Y948D01*
X827Y948D02*
X857Y948D01*
X708Y947D02*
X768Y947D01*
X825Y947D02*
X857Y947D01*
X708Y946D02*
X767Y946D01*
X823Y946D02*
X857Y946D01*
X821Y945D02*
X830Y945D01*
X819Y944D02*
X829Y944D01*
X817Y943D02*
X827Y943D01*
X815Y942D02*
X825Y942D01*
X813Y941D02*
X823Y941D01*
X811Y940D02*
X821Y940D01*
X809Y939D02*
X820Y939D01*
X807Y938D02*
X818Y938D01*
X805Y937D02*
X816Y937D01*
X803Y936D02*
X814Y936D01*
X802Y935D02*
X812Y935D01*
X800Y934D02*
X811Y934D01*
X798Y933D02*
X809Y933D01*
X798Y932D02*
X807Y932D01*
X798Y931D02*
X805Y931D01*
X798Y930D02*
X803Y930D01*
X798Y929D02*
X802Y929D01*
X798Y928D02*
X800Y928D01*
X798Y927D02*
X798Y927D01*
X734Y926D02*
X741Y926D01*
X728Y925D02*
X747Y925D01*
X724Y924D02*
X750Y924D01*
X722Y923D02*
X753Y923D01*
X720Y922D02*
X755Y922D01*
X718Y921D02*
X757Y921D01*
X717Y920D02*
X758Y920D01*
X716Y919D02*
X729Y919D01*
X746Y919D02*
X759Y919D01*
X715Y918D02*
X726Y918D01*
X750Y918D02*
X760Y918D01*
X714Y917D02*
X723Y917D01*
X752Y917D02*
X761Y917D01*
X713Y916D02*
X721Y916D01*
X754Y916D02*
X762Y916D01*
X712Y915D02*
X720Y915D01*
X756Y915D02*
X763Y915D01*
X711Y914D02*
X718Y914D01*
X757Y914D02*
X764Y914D01*
X711Y913D02*
X717Y913D01*
X758Y913D02*
X765Y913D01*
X710Y912D02*
X716Y912D01*
X759Y912D02*
X765Y912D01*
X710Y911D02*
X715Y911D01*
X760Y911D02*
X766Y911D01*
X709Y910D02*
X714Y910D01*
X761Y910D02*
X766Y910D01*
X709Y909D02*
X714Y909D01*
X762Y909D02*
X767Y909D01*
X708Y908D02*
X713Y908D01*
X762Y908D02*
X767Y908D01*
X708Y907D02*
X713Y907D01*
X763Y907D02*
X767Y907D01*
X708Y906D02*
X712Y906D01*
X763Y906D02*
X768Y906D01*
X708Y905D02*
X712Y905D01*
X764Y905D02*
X768Y905D01*
X707Y904D02*
X712Y904D01*
X764Y904D02*
X768Y904D01*
X707Y903D02*
X711Y903D01*
X764Y903D02*
X768Y903D01*
X707Y902D02*
X711Y902D01*
X764Y902D02*
X768Y902D01*
X707Y901D02*
X711Y901D01*
X765Y901D02*
X768Y901D01*
X707Y900D02*
X711Y900D01*
X765Y900D02*
X768Y900D01*
X707Y899D02*
X711Y899D01*
X765Y899D02*
X768Y899D01*
X707Y898D02*
X711Y898D01*
X765Y898D02*
X768Y898D01*
X707Y897D02*
X711Y897D01*
X765Y897D02*
X768Y897D01*
X707Y896D02*
X711Y896D01*
X764Y896D02*
X768Y896D01*
X828Y896D02*
X854Y896D01*
X707Y895D02*
X711Y895D01*
X764Y895D02*
X768Y895D01*
X827Y895D02*
X855Y895D01*
X708Y894D02*
X712Y894D01*
X764Y894D02*
X768Y894D01*
X800Y894D02*
X800Y894D01*
X827Y894D02*
X855Y894D01*
X708Y893D02*
X712Y893D01*
X764Y893D02*
X768Y893D01*
X799Y893D02*
X803Y893D01*
X827Y893D02*
X856Y893D01*
X708Y892D02*
X712Y892D01*
X763Y892D02*
X768Y892D01*
X799Y892D02*
X803Y892D01*
X827Y892D02*
X856Y892D01*
X708Y891D02*
X713Y891D01*
X763Y891D02*
X767Y891D01*
X799Y891D02*
X803Y891D01*
X827Y891D02*
X856Y891D01*
X709Y890D02*
X713Y890D01*
X762Y890D02*
X767Y890D01*
X798Y890D02*
X803Y890D01*
X827Y890D02*
X831Y890D01*
X852Y890D02*
X856Y890D01*
X709Y889D02*
X714Y889D01*
X762Y889D02*
X767Y889D01*
X798Y889D02*
X802Y889D01*
X827Y889D02*
X831Y889D01*
X853Y889D02*
X857Y889D01*
X710Y888D02*
X714Y888D01*
X761Y888D02*
X766Y888D01*
X798Y888D02*
X802Y888D01*
X827Y888D02*
X831Y888D01*
X853Y888D02*
X857Y888D01*
X710Y887D02*
X715Y887D01*
X760Y887D02*
X766Y887D01*
X798Y887D02*
X802Y887D01*
X827Y887D02*
X831Y887D01*
X853Y887D02*
X857Y887D01*
X711Y886D02*
X716Y886D01*
X760Y886D02*
X765Y886D01*
X798Y886D02*
X802Y886D01*
X827Y886D02*
X831Y886D01*
X853Y886D02*
X857Y886D01*
X711Y885D02*
X717Y885D01*
X758Y885D02*
X765Y885D01*
X797Y885D02*
X802Y885D01*
X827Y885D02*
X831Y885D01*
X853Y885D02*
X857Y885D01*
X712Y884D02*
X718Y884D01*
X757Y884D02*
X764Y884D01*
X797Y884D02*
X801Y884D01*
X827Y884D02*
X831Y884D01*
X854Y884D02*
X857Y884D01*
X713Y883D02*
X720Y883D01*
X756Y883D02*
X763Y883D01*
X797Y883D02*
X801Y883D01*
X827Y883D02*
X831Y883D01*
X854Y883D02*
X858Y883D01*
X714Y882D02*
X721Y882D01*
X754Y882D02*
X763Y882D01*
X797Y882D02*
X801Y882D01*
X827Y882D02*
X831Y882D01*
X854Y882D02*
X858Y882D01*
X714Y881D02*
X723Y881D01*
X753Y881D02*
X762Y881D01*
X797Y881D02*
X801Y881D01*
X827Y881D02*
X831Y881D01*
X854Y881D02*
X858Y881D01*
X715Y880D02*
X726Y880D01*
X750Y880D02*
X761Y880D01*
X797Y880D02*
X801Y880D01*
X827Y880D02*
X831Y880D01*
X854Y880D02*
X858Y880D01*
X717Y879D02*
X729Y879D01*
X747Y879D02*
X759Y879D01*
X797Y879D02*
X801Y879D01*
X827Y879D02*
X831Y879D01*
X854Y879D02*
X858Y879D01*
X718Y878D02*
X758Y878D01*
X797Y878D02*
X801Y878D01*
X827Y878D02*
X831Y878D01*
X854Y878D02*
X858Y878D01*
X719Y877D02*
X757Y877D01*
X797Y877D02*
X801Y877D01*
X854Y877D02*
X858Y877D01*
X721Y876D02*
X755Y876D01*
X797Y876D02*
X801Y876D01*
X854Y876D02*
X858Y876D01*
X723Y875D02*
X753Y875D01*
X797Y875D02*
X801Y875D01*
X854Y875D02*
X858Y875D01*
X726Y874D02*
X751Y874D01*
X798Y874D02*
X802Y874D01*
X854Y874D02*
X858Y874D01*
X729Y873D02*
X747Y873D01*
X798Y873D02*
X802Y873D01*
X853Y873D02*
X857Y873D01*
X737Y872D02*
X740Y872D01*
X798Y872D02*
X802Y872D01*
X853Y872D02*
X857Y872D01*
X798Y871D02*
X802Y871D01*
X853Y871D02*
X857Y871D01*
X798Y870D02*
X803Y870D01*
X853Y870D02*
X857Y870D01*
X799Y869D02*
X803Y869D01*
X852Y869D02*
X857Y869D01*
X799Y868D02*
X803Y868D01*
X852Y868D02*
X856Y868D01*
X799Y867D02*
X804Y867D01*
X851Y867D02*
X856Y867D01*
X800Y866D02*
X804Y866D01*
X851Y866D02*
X856Y866D01*
X800Y865D02*
X805Y865D01*
X850Y865D02*
X855Y865D01*
X801Y864D02*
X806Y864D01*
X850Y864D02*
X855Y864D01*
X801Y863D02*
X806Y863D01*
X849Y863D02*
X855Y863D01*
X802Y862D02*
X807Y862D01*
X848Y862D02*
X854Y862D01*
X802Y861D02*
X808Y861D01*
X847Y861D02*
X854Y861D01*
X803Y860D02*
X809Y860D01*
X846Y860D02*
X853Y860D01*
X804Y859D02*
X810Y859D01*
X845Y859D02*
X852Y859D01*
X805Y858D02*
X812Y858D01*
X844Y858D02*
X851Y858D01*
X805Y857D02*
X814Y857D01*
X842Y857D02*
X851Y857D01*
X806Y856D02*
X816Y856D01*
X840Y856D02*
X850Y856D01*
X808Y855D02*
X819Y855D01*
X836Y855D02*
X849Y855D01*
X809Y854D02*
X847Y854D01*
X810Y853D02*
X846Y853D01*
X812Y852D02*
X845Y852D01*
X814Y851D02*
X843Y851D01*
X816Y850D02*
X840Y850D01*
X819Y849D02*
X837Y849D01*
X825Y848D02*
X831Y848D01*
X708Y831D02*
X712Y831D01*
X708Y830D02*
X712Y830D01*
X708Y829D02*
X712Y829D01*
X708Y828D02*
X712Y828D01*
X708Y827D02*
X712Y827D01*
X708Y826D02*
X712Y826D01*
X708Y825D02*
X712Y825D01*
X708Y824D02*
X712Y824D01*
X708Y823D02*
X712Y823D01*
X708Y822D02*
X712Y822D01*
X708Y821D02*
X712Y821D01*
X708Y820D02*
X712Y820D01*
X708Y819D02*
X712Y819D01*
X708Y818D02*
X712Y818D01*
X905Y818D02*
X905Y818D01*
X708Y817D02*
X712Y817D01*
X822Y817D02*
X832Y817D01*
X905Y817D02*
X907Y817D01*
X708Y816D02*
X712Y816D01*
X817Y816D02*
X837Y816D01*
X905Y816D02*
X909Y816D01*
X708Y815D02*
X712Y815D01*
X814Y815D02*
X841Y815D01*
X906Y815D02*
X911Y815D01*
X708Y814D02*
X712Y814D01*
X811Y814D02*
X843Y814D01*
X908Y814D02*
X912Y814D01*
X708Y813D02*
X712Y813D01*
X809Y813D02*
X845Y813D01*
X910Y813D02*
X914Y813D01*
X708Y812D02*
X768Y812D01*
X808Y812D02*
X846Y812D01*
X911Y812D02*
X916Y812D01*
X708Y811D02*
X768Y811D01*
X807Y811D02*
X826Y811D01*
X829Y811D02*
X848Y811D01*
X913Y811D02*
X917Y811D01*
X708Y810D02*
X768Y810D01*
X805Y810D02*
X818Y810D01*
X837Y810D02*
X849Y810D01*
X915Y810D02*
X919Y810D01*
X708Y809D02*
X768Y809D01*
X804Y809D02*
X815Y809D01*
X840Y809D02*
X850Y809D01*
X917Y809D02*
X921Y809D01*
X708Y808D02*
X768Y808D01*
X803Y808D02*
X813Y808D01*
X842Y808D02*
X851Y808D01*
X919Y808D02*
X933Y808D01*
X708Y807D02*
X767Y807D01*
X802Y807D02*
X811Y807D01*
X844Y807D02*
X852Y807D01*
X918Y807D02*
X933Y807D01*
X708Y806D02*
X712Y806D01*
X802Y806D02*
X809Y806D01*
X846Y806D02*
X853Y806D01*
X916Y806D02*
X921Y806D01*
X708Y805D02*
X712Y805D01*
X801Y805D02*
X808Y805D01*
X847Y805D02*
X854Y805D01*
X914Y805D02*
X919Y805D01*
X708Y804D02*
X712Y804D01*
X800Y804D02*
X807Y804D01*
X848Y804D02*
X854Y804D01*
X912Y804D02*
X917Y804D01*
X708Y803D02*
X712Y803D01*
X800Y803D02*
X806Y803D01*
X849Y803D02*
X855Y803D01*
X911Y803D02*
X915Y803D01*
X708Y802D02*
X712Y802D01*
X799Y802D02*
X805Y802D01*
X850Y802D02*
X855Y802D01*
X909Y802D02*
X913Y802D01*
X708Y801D02*
X712Y801D01*
X799Y801D02*
X804Y801D01*
X851Y801D02*
X856Y801D01*
X907Y801D02*
X912Y801D01*
X708Y800D02*
X712Y800D01*
X798Y800D02*
X803Y800D01*
X852Y800D02*
X856Y800D01*
X905Y800D02*
X910Y800D01*
X708Y799D02*
X712Y799D01*
X798Y799D02*
X803Y799D01*
X852Y799D02*
X857Y799D01*
X905Y799D02*
X908Y799D01*
X708Y798D02*
X712Y798D01*
X798Y798D02*
X802Y798D01*
X853Y798D02*
X857Y798D01*
X905Y798D02*
X906Y798D01*
X708Y797D02*
X712Y797D01*
X797Y797D02*
X802Y797D01*
X853Y797D02*
X857Y797D01*
X708Y796D02*
X712Y796D01*
X797Y796D02*
X801Y796D01*
X853Y796D02*
X858Y796D01*
X708Y795D02*
X712Y795D01*
X797Y795D02*
X801Y795D01*
X854Y795D02*
X858Y795D01*
X708Y794D02*
X712Y794D01*
X797Y794D02*
X801Y794D01*
X854Y794D02*
X858Y794D01*
X708Y793D02*
X712Y793D01*
X797Y793D02*
X801Y793D01*
X854Y793D02*
X858Y793D01*
X708Y792D02*
X712Y792D01*
X797Y792D02*
X801Y792D01*
X854Y792D02*
X858Y792D01*
X708Y791D02*
X712Y791D01*
X797Y791D02*
X801Y791D01*
X854Y791D02*
X858Y791D01*
X708Y790D02*
X712Y790D01*
X797Y790D02*
X801Y790D01*
X854Y790D02*
X858Y790D01*
X708Y789D02*
X712Y789D01*
X797Y789D02*
X801Y789D01*
X854Y789D02*
X858Y789D01*
X708Y788D02*
X712Y788D01*
X797Y788D02*
X801Y788D01*
X854Y788D02*
X858Y788D01*
X797Y787D02*
X801Y787D01*
X854Y787D02*
X858Y787D01*
X797Y786D02*
X801Y786D01*
X854Y786D02*
X858Y786D01*
X797Y785D02*
X801Y785D01*
X854Y785D02*
X858Y785D01*
X920Y785D02*
X932Y785D01*
X798Y784D02*
X802Y784D01*
X853Y784D02*
X858Y784D01*
X919Y784D02*
X932Y784D01*
X798Y783D02*
X802Y783D01*
X853Y783D02*
X857Y783D01*
X906Y783D02*
X907Y783D01*
X919Y783D02*
X933Y783D01*
X798Y782D02*
X802Y782D01*
X853Y782D02*
X857Y782D01*
X905Y782D02*
X907Y782D01*
X919Y782D02*
X921Y782D01*
X931Y782D02*
X933Y782D01*
X798Y781D02*
X803Y781D01*
X852Y781D02*
X857Y781D01*
X905Y781D02*
X907Y781D01*
X919Y781D02*
X921Y781D01*
X932Y781D02*
X933Y781D01*
X799Y780D02*
X803Y780D01*
X852Y780D02*
X856Y780D01*
X905Y780D02*
X906Y780D01*
X919Y780D02*
X921Y780D01*
X932Y780D02*
X933Y780D01*
X799Y779D02*
X804Y779D01*
X851Y779D02*
X856Y779D01*
X905Y779D02*
X906Y779D01*
X919Y779D02*
X921Y779D01*
X932Y779D02*
X933Y779D01*
X800Y778D02*
X805Y778D01*
X850Y778D02*
X855Y778D01*
X905Y778D02*
X906Y778D01*
X919Y778D02*
X921Y778D01*
X932Y778D02*
X934Y778D01*
X800Y777D02*
X806Y777D01*
X849Y777D02*
X855Y777D01*
X905Y777D02*
X906Y777D01*
X919Y777D02*
X921Y777D01*
X932Y777D02*
X934Y777D01*
X801Y776D02*
X807Y776D01*
X848Y776D02*
X854Y776D01*
X905Y776D02*
X906Y776D01*
X920Y776D02*
X921Y776D01*
X932Y776D02*
X934Y776D01*
X802Y775D02*
X808Y775D01*
X847Y775D02*
X854Y775D01*
X905Y775D02*
X906Y775D01*
X932Y775D02*
X934Y775D01*
X803Y774D02*
X810Y774D01*
X845Y774D02*
X853Y774D01*
X905Y774D02*
X906Y774D01*
X932Y774D02*
X933Y774D01*
X803Y773D02*
X811Y773D01*
X844Y773D02*
X852Y773D01*
X905Y773D02*
X907Y773D01*
X932Y773D02*
X933Y773D01*
X708Y772D02*
X767Y772D01*
X804Y772D02*
X813Y772D01*
X842Y772D02*
X851Y772D01*
X905Y772D02*
X907Y772D01*
X932Y772D02*
X933Y772D01*
X708Y771D02*
X768Y771D01*
X805Y771D02*
X816Y771D01*
X839Y771D02*
X850Y771D01*
X906Y771D02*
X907Y771D01*
X931Y771D02*
X933Y771D01*
X708Y770D02*
X768Y770D01*
X807Y770D02*
X820Y770D01*
X836Y770D02*
X849Y770D01*
X906Y770D02*
X908Y770D01*
X931Y770D02*
X933Y770D01*
X708Y769D02*
X768Y769D01*
X808Y769D02*
X848Y769D01*
X907Y769D02*
X909Y769D01*
X930Y769D02*
X932Y769D01*
X708Y768D02*
X768Y768D01*
X809Y768D02*
X846Y768D01*
X907Y768D02*
X909Y768D01*
X929Y768D02*
X932Y768D01*
X708Y767D02*
X750Y767D01*
X760Y767D02*
X767Y767D01*
X811Y767D02*
X845Y767D01*
X908Y767D02*
X911Y767D01*
X928Y767D02*
X931Y767D01*
X758Y766D02*
X767Y766D01*
X813Y766D02*
X843Y766D01*
X909Y766D02*
X912Y766D01*
X926Y766D02*
X930Y766D01*
X756Y765D02*
X765Y765D01*
X816Y765D02*
X840Y765D01*
X910Y765D02*
X915Y765D01*
X924Y765D02*
X929Y765D01*
X754Y764D02*
X763Y764D01*
X819Y764D02*
X836Y764D01*
X911Y764D02*
X928Y764D01*
X753Y763D02*
X762Y763D01*
X913Y763D02*
X926Y763D01*
X751Y762D02*
X760Y762D01*
X916Y762D02*
X923Y762D01*
X749Y761D02*
X759Y761D01*
X748Y760D02*
X757Y760D01*
X746Y759D02*
X756Y759D01*
X744Y758D02*
X754Y758D01*
X743Y757D02*
X753Y757D01*
X741Y756D02*
X751Y756D01*
X740Y755D02*
X750Y755D01*
X738Y754D02*
X748Y754D01*
X736Y753D02*
X746Y753D01*
X735Y752D02*
X745Y752D01*
X733Y751D02*
X743Y751D01*
X732Y750D02*
X742Y750D01*
X730Y749D02*
X740Y749D01*
X915Y749D02*
X923Y749D01*
X729Y748D02*
X739Y748D01*
X912Y748D02*
X926Y748D01*
X727Y747D02*
X737Y747D01*
X910Y747D02*
X928Y747D01*
X726Y746D02*
X736Y746D01*
X909Y746D02*
X915Y746D01*
X924Y746D02*
X929Y746D01*
X724Y745D02*
X734Y745D01*
X908Y745D02*
X912Y745D01*
X927Y745D02*
X930Y745D01*
X723Y744D02*
X732Y744D01*
X907Y744D02*
X910Y744D01*
X928Y744D02*
X931Y744D01*
X721Y743D02*
X731Y743D01*
X906Y743D02*
X909Y743D01*
X929Y743D02*
X932Y743D01*
X719Y742D02*
X729Y742D01*
X906Y742D02*
X908Y742D01*
X930Y742D02*
X932Y742D01*
X718Y741D02*
X727Y741D01*
X905Y741D02*
X907Y741D01*
X931Y741D02*
X933Y741D01*
X716Y740D02*
X726Y740D01*
X905Y740D02*
X907Y740D01*
X932Y740D02*
X933Y740D01*
X715Y739D02*
X724Y739D01*
X905Y739D02*
X906Y739D01*
X932Y739D02*
X934Y739D01*
X713Y738D02*
X722Y738D01*
X905Y738D02*
X906Y738D01*
X932Y738D02*
X934Y738D01*
X712Y737D02*
X721Y737D01*
X853Y737D02*
X857Y737D01*
X905Y737D02*
X906Y737D01*
X932Y737D02*
X934Y737D01*
X710Y736D02*
X719Y736D01*
X853Y736D02*
X857Y736D01*
X905Y736D02*
X906Y736D01*
X932Y736D02*
X934Y736D01*
X709Y735D02*
X717Y735D01*
X853Y735D02*
X857Y735D01*
X905Y735D02*
X906Y735D01*
X932Y735D02*
X934Y735D01*
X708Y734D02*
X715Y734D01*
X735Y734D02*
X767Y734D01*
X853Y734D02*
X857Y734D01*
X905Y734D02*
X906Y734D01*
X932Y734D02*
X934Y734D01*
X708Y733D02*
X768Y733D01*
X853Y733D02*
X857Y733D01*
X905Y733D02*
X906Y733D01*
X932Y733D02*
X933Y733D01*
X708Y732D02*
X768Y732D01*
X853Y732D02*
X857Y732D01*
X905Y732D02*
X907Y732D01*
X931Y732D02*
X933Y732D01*
X708Y731D02*
X768Y731D01*
X853Y731D02*
X857Y731D01*
X906Y731D02*
X908Y731D01*
X931Y731D02*
X933Y731D01*
X708Y730D02*
X768Y730D01*
X853Y730D02*
X857Y730D01*
X906Y730D02*
X908Y730D01*
X930Y730D02*
X932Y730D01*
X708Y729D02*
X768Y729D01*
X853Y729D02*
X857Y729D01*
X907Y729D02*
X909Y729D01*
X929Y729D02*
X932Y729D01*
X853Y728D02*
X857Y728D01*
X908Y728D02*
X911Y728D01*
X927Y728D02*
X931Y728D01*
X853Y727D02*
X857Y727D01*
X909Y727D02*
X913Y727D01*
X925Y727D02*
X930Y727D01*
X853Y726D02*
X857Y726D01*
X910Y726D02*
X929Y726D01*
X853Y725D02*
X857Y725D01*
X912Y725D02*
X927Y725D01*
X853Y724D02*
X857Y724D01*
X914Y724D02*
X925Y724D01*
X853Y723D02*
X857Y723D01*
X853Y722D02*
X857Y722D01*
X853Y721D02*
X857Y721D01*
X853Y720D02*
X857Y720D01*
X853Y719D02*
X857Y719D01*
X853Y718D02*
X857Y718D01*
X853Y717D02*
X857Y717D01*
X853Y716D02*
X857Y716D01*
X853Y715D02*
X857Y715D01*
X853Y714D02*
X857Y714D01*
X853Y713D02*
X857Y713D01*
X932Y713D02*
X933Y713D01*
X853Y712D02*
X857Y712D01*
X932Y712D02*
X933Y712D01*
X798Y711D02*
X857Y711D01*
X932Y711D02*
X933Y711D01*
X798Y710D02*
X857Y710D01*
X932Y710D02*
X933Y710D01*
X764Y709D02*
X767Y709D01*
X798Y709D02*
X857Y709D01*
X932Y709D02*
X933Y709D01*
X764Y708D02*
X768Y708D01*
X798Y708D02*
X857Y708D01*
X932Y708D02*
X933Y708D01*
X708Y707D02*
X712Y707D01*
X764Y707D02*
X768Y707D01*
X798Y707D02*
X857Y707D01*
X932Y707D02*
X933Y707D01*
X708Y706D02*
X712Y706D01*
X734Y706D02*
X738Y706D01*
X764Y706D02*
X768Y706D01*
X798Y706D02*
X857Y706D01*
X932Y706D02*
X933Y706D01*
X708Y705D02*
X712Y705D01*
X734Y705D02*
X738Y705D01*
X764Y705D02*
X768Y705D01*
X932Y705D02*
X933Y705D01*
X708Y704D02*
X712Y704D01*
X734Y704D02*
X738Y704D01*
X764Y704D02*
X768Y704D01*
X932Y704D02*
X933Y704D01*
X708Y703D02*
X712Y703D01*
X734Y703D02*
X738Y703D01*
X764Y703D02*
X768Y703D01*
X932Y703D02*
X933Y703D01*
X708Y702D02*
X712Y702D01*
X734Y702D02*
X738Y702D01*
X764Y702D02*
X768Y702D01*
X932Y702D02*
X933Y702D01*
X708Y701D02*
X712Y701D01*
X734Y701D02*
X738Y701D01*
X764Y701D02*
X768Y701D01*
X932Y701D02*
X933Y701D01*
X708Y700D02*
X712Y700D01*
X734Y700D02*
X738Y700D01*
X764Y700D02*
X768Y700D01*
X905Y700D02*
X933Y700D01*
X708Y699D02*
X712Y699D01*
X734Y699D02*
X738Y699D01*
X764Y699D02*
X768Y699D01*
X905Y699D02*
X933Y699D01*
X708Y698D02*
X712Y698D01*
X734Y698D02*
X738Y698D01*
X764Y698D02*
X768Y698D01*
X905Y698D02*
X933Y698D01*
X708Y697D02*
X712Y697D01*
X734Y697D02*
X738Y697D01*
X764Y697D02*
X768Y697D01*
X708Y696D02*
X712Y696D01*
X734Y696D02*
X738Y696D01*
X764Y696D02*
X768Y696D01*
X708Y695D02*
X712Y695D01*
X734Y695D02*
X738Y695D01*
X764Y695D02*
X768Y695D01*
X708Y694D02*
X712Y694D01*
X734Y694D02*
X738Y694D01*
X764Y694D02*
X768Y694D01*
X708Y693D02*
X712Y693D01*
X734Y693D02*
X738Y693D01*
X764Y693D02*
X768Y693D01*
X708Y692D02*
X712Y692D01*
X734Y692D02*
X738Y692D01*
X764Y692D02*
X768Y692D01*
X708Y691D02*
X712Y691D01*
X734Y691D02*
X738Y691D01*
X764Y691D02*
X768Y691D01*
X708Y690D02*
X712Y690D01*
X734Y690D02*
X738Y690D01*
X764Y690D02*
X768Y690D01*
X708Y689D02*
X712Y689D01*
X734Y689D02*
X738Y689D01*
X764Y689D02*
X768Y689D01*
X708Y688D02*
X712Y688D01*
X734Y688D02*
X738Y688D01*
X764Y688D02*
X768Y688D01*
X708Y687D02*
X712Y687D01*
X734Y687D02*
X738Y687D01*
X764Y687D02*
X768Y687D01*
X708Y686D02*
X712Y686D01*
X734Y686D02*
X738Y686D01*
X764Y686D02*
X768Y686D01*
X708Y685D02*
X712Y685D01*
X734Y685D02*
X738Y685D01*
X764Y685D02*
X768Y685D01*
X708Y684D02*
X712Y684D01*
X734Y684D02*
X738Y684D01*
X764Y684D02*
X768Y684D01*
X916Y684D02*
X921Y684D01*
X708Y683D02*
X712Y683D01*
X734Y683D02*
X738Y683D01*
X763Y683D02*
X768Y683D01*
X913Y683D02*
X925Y683D01*
X708Y682D02*
X768Y682D01*
X911Y682D02*
X927Y682D01*
X708Y681D02*
X768Y681D01*
X909Y681D02*
X916Y681D01*
X922Y681D02*
X929Y681D01*
X708Y680D02*
X768Y680D01*
X908Y680D02*
X912Y680D01*
X926Y680D02*
X930Y680D01*
X708Y679D02*
X768Y679D01*
X907Y679D02*
X910Y679D01*
X928Y679D02*
X931Y679D01*
X708Y678D02*
X768Y678D01*
X906Y678D02*
X909Y678D01*
X929Y678D02*
X932Y678D01*
X708Y677D02*
X767Y677D01*
X906Y677D02*
X908Y677D01*
X930Y677D02*
X932Y677D01*
X905Y676D02*
X907Y676D01*
X931Y676D02*
X933Y676D01*
X905Y675D02*
X907Y675D01*
X932Y675D02*
X933Y675D01*
X905Y674D02*
X906Y674D01*
X932Y674D02*
X933Y674D01*
X905Y673D02*
X906Y673D01*
X932Y673D02*
X934Y673D01*
X905Y672D02*
X906Y672D01*
X932Y672D02*
X934Y672D01*
X822Y671D02*
X832Y671D01*
X905Y671D02*
X906Y671D01*
X932Y671D02*
X934Y671D01*
X817Y670D02*
X837Y670D01*
X905Y670D02*
X906Y670D01*
X932Y670D02*
X934Y670D01*
X814Y669D02*
X840Y669D01*
X905Y669D02*
X906Y669D01*
X932Y669D02*
X934Y669D01*
X811Y668D02*
X843Y668D01*
X905Y668D02*
X906Y668D01*
X932Y668D02*
X934Y668D01*
X810Y667D02*
X845Y667D01*
X905Y667D02*
X907Y667D01*
X932Y667D02*
X933Y667D01*
X808Y666D02*
X846Y666D01*
X906Y666D02*
X907Y666D01*
X931Y666D02*
X933Y666D01*
X807Y665D02*
X848Y665D01*
X906Y665D02*
X908Y665D01*
X930Y665D02*
X932Y665D01*
X805Y664D02*
X818Y664D01*
X836Y664D02*
X849Y664D01*
X907Y664D02*
X909Y664D01*
X929Y664D02*
X932Y664D01*
X804Y663D02*
X815Y663D01*
X840Y663D02*
X850Y663D01*
X907Y663D02*
X910Y663D01*
X928Y663D02*
X931Y663D01*
X803Y662D02*
X813Y662D01*
X842Y662D02*
X851Y662D01*
X908Y662D02*
X912Y662D01*
X926Y662D02*
X930Y662D01*
X802Y661D02*
X811Y661D01*
X844Y661D02*
X852Y661D01*
X910Y661D02*
X916Y661D01*
X922Y661D02*
X929Y661D01*
X802Y660D02*
X809Y660D01*
X846Y660D02*
X853Y660D01*
X911Y660D02*
X928Y660D01*
X801Y659D02*
X808Y659D01*
X847Y659D02*
X854Y659D01*
X913Y659D02*
X925Y659D01*
X800Y658D02*
X807Y658D01*
X848Y658D02*
X854Y658D01*
X918Y658D02*
X921Y658D01*
X800Y657D02*
X806Y657D01*
X849Y657D02*
X855Y657D01*
X799Y656D02*
X805Y656D01*
X850Y656D02*
X855Y656D01*
X763Y655D02*
X767Y655D01*
X799Y655D02*
X804Y655D01*
X851Y655D02*
X856Y655D01*
X748Y654D02*
X768Y654D01*
X798Y654D02*
X803Y654D01*
X852Y654D02*
X856Y654D01*
X732Y653D02*
X768Y653D01*
X798Y653D02*
X803Y653D01*
X852Y653D02*
X857Y653D01*
X716Y652D02*
X768Y652D01*
X798Y652D02*
X802Y652D01*
X853Y652D02*
X857Y652D01*
X708Y651D02*
X768Y651D01*
X797Y651D02*
X802Y651D01*
X853Y651D02*
X857Y651D01*
X708Y650D02*
X768Y650D01*
X797Y650D02*
X801Y650D01*
X853Y650D02*
X858Y650D01*
X708Y649D02*
X759Y649D01*
X797Y649D02*
X801Y649D01*
X854Y649D02*
X858Y649D01*
X708Y648D02*
X742Y648D01*
X797Y648D02*
X801Y648D01*
X854Y648D02*
X858Y648D01*
X708Y647D02*
X721Y647D01*
X797Y647D02*
X801Y647D01*
X854Y647D02*
X858Y647D01*
X708Y646D02*
X715Y646D01*
X797Y646D02*
X801Y646D01*
X854Y646D02*
X858Y646D01*
X708Y645D02*
X718Y645D01*
X797Y645D02*
X801Y645D01*
X854Y645D02*
X858Y645D01*
X708Y644D02*
X721Y644D01*
X797Y644D02*
X801Y644D01*
X854Y644D02*
X858Y644D01*
X905Y644D02*
X933Y644D01*
X711Y643D02*
X724Y643D01*
X797Y643D02*
X801Y643D01*
X854Y643D02*
X858Y643D01*
X905Y643D02*
X933Y643D01*
X714Y642D02*
X727Y642D01*
X797Y642D02*
X801Y642D01*
X854Y642D02*
X858Y642D01*
X905Y642D02*
X933Y642D01*
X716Y641D02*
X730Y641D01*
X797Y641D02*
X801Y641D01*
X854Y641D02*
X858Y641D01*
X917Y641D02*
X919Y641D01*
X719Y640D02*
X732Y640D01*
X797Y640D02*
X801Y640D01*
X854Y640D02*
X858Y640D01*
X918Y640D02*
X919Y640D01*
X722Y639D02*
X735Y639D01*
X797Y639D02*
X801Y639D01*
X854Y639D02*
X858Y639D01*
X918Y639D02*
X919Y639D01*
X724Y638D02*
X738Y638D01*
X798Y638D02*
X802Y638D01*
X853Y638D02*
X858Y638D01*
X918Y638D02*
X919Y638D01*
X727Y637D02*
X741Y637D01*
X798Y637D02*
X802Y637D01*
X853Y637D02*
X857Y637D01*
X918Y637D02*
X919Y637D01*
X729Y636D02*
X743Y636D01*
X798Y636D02*
X802Y636D01*
X853Y636D02*
X857Y636D01*
X918Y636D02*
X919Y636D01*
X732Y635D02*
X746Y635D01*
X798Y635D02*
X803Y635D01*
X852Y635D02*
X857Y635D01*
X918Y635D02*
X919Y635D01*
X735Y634D02*
X749Y634D01*
X799Y634D02*
X803Y634D01*
X852Y634D02*
X856Y634D01*
X918Y634D02*
X919Y634D01*
X737Y633D02*
X751Y633D01*
X799Y633D02*
X804Y633D01*
X851Y633D02*
X856Y633D01*
X918Y633D02*
X919Y633D01*
X740Y632D02*
X754Y632D01*
X800Y632D02*
X805Y632D01*
X850Y632D02*
X855Y632D01*
X918Y632D02*
X919Y632D01*
X743Y631D02*
X757Y631D01*
X800Y631D02*
X806Y631D01*
X849Y631D02*
X855Y631D01*
X918Y631D02*
X919Y631D01*
X746Y630D02*
X759Y630D01*
X801Y630D02*
X807Y630D01*
X848Y630D02*
X854Y630D01*
X918Y630D02*
X919Y630D01*
X748Y629D02*
X762Y629D01*
X802Y629D02*
X808Y629D01*
X847Y629D02*
X854Y629D01*
X918Y629D02*
X919Y629D01*
X751Y628D02*
X765Y628D01*
X802Y628D02*
X809Y628D01*
X845Y628D02*
X853Y628D01*
X918Y628D02*
X919Y628D01*
X754Y627D02*
X767Y627D01*
X803Y627D02*
X811Y627D01*
X844Y627D02*
X852Y627D01*
X918Y627D02*
X919Y627D01*
X758Y626D02*
X768Y626D01*
X804Y626D02*
X813Y626D01*
X842Y626D02*
X851Y626D01*
X917Y626D02*
X920Y626D01*
X760Y625D02*
X768Y625D01*
X805Y625D02*
X816Y625D01*
X839Y625D02*
X850Y625D01*
X905Y625D02*
X933Y625D01*
X757Y624D02*
X768Y624D01*
X807Y624D02*
X819Y624D01*
X836Y624D02*
X849Y624D01*
X905Y624D02*
X933Y624D01*
X753Y623D02*
X767Y623D01*
X808Y623D02*
X848Y623D01*
X750Y622D02*
X766Y622D01*
X809Y622D02*
X846Y622D01*
X747Y621D02*
X763Y621D01*
X811Y621D02*
X845Y621D01*
X744Y620D02*
X760Y620D01*
X813Y620D02*
X843Y620D01*
X741Y619D02*
X757Y619D01*
X816Y619D02*
X840Y619D01*
X738Y618D02*
X755Y618D01*
X819Y618D02*
X837Y618D01*
X736Y617D02*
X752Y617D01*
X733Y616D02*
X749Y616D01*
X730Y615D02*
X746Y615D01*
X728Y614D02*
X743Y614D01*
X725Y613D02*
X741Y613D01*
X722Y612D02*
X738Y612D01*
X719Y611D02*
X735Y611D01*
X717Y610D02*
X732Y610D01*
X714Y609D02*
X729Y609D01*
X906Y609D02*
X906Y609D01*
X932Y609D02*
X933Y609D01*
X711Y608D02*
X726Y608D01*
X905Y608D02*
X907Y608D01*
X931Y608D02*
X933Y608D01*
X709Y607D02*
X723Y607D01*
X905Y607D02*
X907Y607D01*
X932Y607D02*
X933Y607D01*
X708Y606D02*
X719Y606D01*
X905Y606D02*
X906Y606D01*
X932Y606D02*
X933Y606D01*
X708Y605D02*
X716Y605D01*
X905Y605D02*
X906Y605D01*
X932Y605D02*
X934Y605D01*
X708Y604D02*
X715Y604D01*
X905Y604D02*
X906Y604D01*
X932Y604D02*
X934Y604D01*
X708Y603D02*
X737Y603D01*
X905Y603D02*
X906Y603D01*
X932Y603D02*
X934Y603D01*
X708Y602D02*
X753Y602D01*
X905Y602D02*
X906Y602D01*
X932Y602D02*
X934Y602D01*
X708Y601D02*
X767Y601D01*
X905Y601D02*
X906Y601D01*
X932Y601D02*
X934Y601D01*
X708Y600D02*
X768Y600D01*
X905Y600D02*
X906Y600D01*
X932Y600D02*
X934Y600D01*
X717Y599D02*
X768Y599D01*
X905Y599D02*
X906Y599D01*
X932Y599D02*
X934Y599D01*
X731Y598D02*
X768Y598D01*
X905Y598D02*
X907Y598D01*
X932Y598D02*
X933Y598D01*
X745Y597D02*
X768Y597D01*
X905Y597D02*
X907Y597D01*
X931Y597D02*
X933Y597D01*
X759Y596D02*
X768Y596D01*
X906Y596D02*
X908Y596D01*
X931Y596D02*
X933Y596D01*
X906Y595D02*
X908Y595D01*
X930Y595D02*
X932Y595D01*
X907Y594D02*
X909Y594D01*
X929Y594D02*
X932Y594D01*
X908Y593D02*
X910Y593D01*
X928Y593D02*
X931Y593D01*
X909Y592D02*
X912Y592D01*
X926Y592D02*
X930Y592D01*
X910Y591D02*
X915Y591D01*
X924Y591D02*
X929Y591D01*
X911Y590D02*
X928Y590D01*
X913Y589D02*
X926Y589D01*
X916Y588D02*
X923Y588D01*
X798Y582D02*
X857Y582D01*
X708Y581D02*
X712Y581D01*
X798Y581D02*
X857Y581D01*
X708Y580D02*
X712Y580D01*
X798Y580D02*
X857Y580D01*
X708Y579D02*
X712Y579D01*
X798Y579D02*
X857Y579D01*
X708Y578D02*
X712Y578D01*
X798Y578D02*
X857Y578D01*
X905Y578D02*
X905Y578D01*
X708Y577D02*
X712Y577D01*
X798Y577D02*
X857Y577D01*
X905Y577D02*
X907Y577D01*
X708Y576D02*
X712Y576D01*
X824Y576D02*
X828Y576D01*
X905Y576D02*
X909Y576D01*
X708Y575D02*
X712Y575D01*
X824Y575D02*
X828Y575D01*
X906Y575D02*
X910Y575D01*
X708Y574D02*
X712Y574D01*
X824Y574D02*
X828Y574D01*
X908Y574D02*
X912Y574D01*
X708Y573D02*
X712Y573D01*
X824Y573D02*
X828Y573D01*
X909Y573D02*
X914Y573D01*
X708Y572D02*
X712Y572D01*
X824Y572D02*
X828Y572D01*
X911Y572D02*
X915Y572D01*
X708Y571D02*
X712Y571D01*
X824Y571D02*
X828Y571D01*
X913Y571D02*
X917Y571D01*
X708Y570D02*
X712Y570D01*
X824Y570D02*
X828Y570D01*
X915Y570D02*
X919Y570D01*
X708Y569D02*
X712Y569D01*
X824Y569D02*
X828Y569D01*
X917Y569D02*
X920Y569D01*
X708Y568D02*
X712Y568D01*
X824Y568D02*
X828Y568D01*
X919Y568D02*
X933Y568D01*
X708Y567D02*
X712Y567D01*
X824Y567D02*
X828Y567D01*
X919Y567D02*
X933Y567D01*
X708Y566D02*
X712Y566D01*
X824Y566D02*
X828Y566D01*
X917Y566D02*
X933Y566D01*
X708Y565D02*
X712Y565D01*
X824Y565D02*
X828Y565D01*
X915Y565D02*
X919Y565D01*
X708Y564D02*
X712Y564D01*
X824Y564D02*
X828Y564D01*
X913Y564D02*
X917Y564D01*
X708Y563D02*
X712Y563D01*
X824Y563D02*
X828Y563D01*
X911Y563D02*
X915Y563D01*
X708Y562D02*
X768Y562D01*
X824Y562D02*
X828Y562D01*
X909Y562D02*
X914Y562D01*
X708Y561D02*
X768Y561D01*
X824Y561D02*
X828Y561D01*
X907Y561D02*
X912Y561D01*
X708Y560D02*
X768Y560D01*
X824Y560D02*
X828Y560D01*
X905Y560D02*
X910Y560D01*
X708Y559D02*
X768Y559D01*
X824Y559D02*
X828Y559D01*
X905Y559D02*
X908Y559D01*
X708Y558D02*
X768Y558D01*
X824Y558D02*
X828Y558D01*
X905Y558D02*
X907Y558D01*
X708Y557D02*
X767Y557D01*
X824Y557D02*
X828Y557D01*
X905Y557D02*
X905Y557D01*
X708Y556D02*
X712Y556D01*
X824Y556D02*
X828Y556D01*
X708Y555D02*
X712Y555D01*
X824Y555D02*
X828Y555D01*
X708Y554D02*
X712Y554D01*
X824Y554D02*
X828Y554D01*
X708Y553D02*
X712Y553D01*
X824Y553D02*
X828Y553D01*
X708Y552D02*
X712Y552D01*
X824Y552D02*
X828Y552D01*
X708Y551D02*
X712Y551D01*
X824Y551D02*
X828Y551D01*
X708Y550D02*
X712Y550D01*
X824Y550D02*
X828Y550D01*
X708Y549D02*
X712Y549D01*
X824Y549D02*
X828Y549D01*
X708Y548D02*
X712Y548D01*
X824Y548D02*
X828Y548D01*
X708Y547D02*
X712Y547D01*
X824Y547D02*
X828Y547D01*
X708Y546D02*
X712Y546D01*
X824Y546D02*
X828Y546D01*
X708Y545D02*
X712Y545D01*
X798Y545D02*
X857Y545D01*
X924Y545D02*
X928Y545D01*
X708Y544D02*
X712Y544D01*
X798Y544D02*
X857Y544D01*
X922Y544D02*
X930Y544D01*
X708Y543D02*
X712Y543D01*
X798Y543D02*
X857Y543D01*
X905Y543D02*
X907Y543D01*
X921Y543D02*
X931Y543D01*
X708Y542D02*
X712Y542D01*
X798Y542D02*
X857Y542D01*
X905Y542D02*
X907Y542D01*
X920Y542D02*
X923Y542D01*
X929Y542D02*
X932Y542D01*
X708Y541D02*
X712Y541D01*
X798Y541D02*
X857Y541D01*
X905Y541D02*
X906Y541D01*
X919Y541D02*
X922Y541D01*
X930Y541D02*
X933Y541D01*
X708Y540D02*
X712Y540D01*
X798Y540D02*
X857Y540D01*
X905Y540D02*
X906Y540D01*
X919Y540D02*
X921Y540D01*
X931Y540D02*
X933Y540D01*
X708Y539D02*
X712Y539D01*
X905Y539D02*
X906Y539D01*
X918Y539D02*
X920Y539D01*
X932Y539D02*
X933Y539D01*
X708Y538D02*
X712Y538D01*
X905Y538D02*
X906Y538D01*
X918Y538D02*
X920Y538D01*
X932Y538D02*
X934Y538D01*
X905Y537D02*
X906Y537D01*
X918Y537D02*
X920Y537D01*
X932Y537D02*
X934Y537D01*
X905Y536D02*
X906Y536D01*
X917Y536D02*
X919Y536D01*
X932Y536D02*
X934Y536D01*
X905Y535D02*
X906Y535D01*
X917Y535D02*
X919Y535D01*
X932Y535D02*
X934Y535D01*
X905Y534D02*
X907Y534D01*
X916Y534D02*
X918Y534D01*
X932Y534D02*
X934Y534D01*
X906Y533D02*
X908Y533D01*
X915Y533D02*
X918Y533D01*
X932Y533D02*
X934Y533D01*
X906Y532D02*
X917Y532D01*
X932Y532D02*
X933Y532D01*
X907Y531D02*
X916Y531D01*
X931Y531D02*
X933Y531D01*
X909Y530D02*
X914Y530D01*
X931Y530D02*
X933Y530D01*
X931Y529D02*
X932Y529D01*
X765Y525D02*
X768Y525D01*
X723Y524D02*
X724Y524D01*
X762Y524D02*
X768Y524D01*
X718Y523D02*
X729Y523D01*
X758Y523D02*
X768Y523D01*
X716Y522D02*
X731Y522D01*
X754Y522D02*
X768Y522D01*
X714Y521D02*
X733Y521D01*
X750Y521D02*
X768Y521D01*
X713Y520D02*
X734Y520D01*
X747Y520D02*
X767Y520D01*
X712Y519D02*
X735Y519D01*
X745Y519D02*
X765Y519D01*
X711Y518D02*
X721Y518D01*
X726Y518D02*
X735Y518D01*
X744Y518D02*
X761Y518D01*
X711Y517D02*
X718Y517D01*
X730Y517D02*
X736Y517D01*
X742Y517D02*
X757Y517D01*
X710Y516D02*
X716Y516D01*
X732Y516D02*
X737Y516D01*
X742Y516D02*
X752Y516D01*
X710Y515D02*
X715Y515D01*
X733Y515D02*
X737Y515D01*
X741Y515D02*
X749Y515D01*
X909Y515D02*
X916Y515D01*
X709Y514D02*
X714Y514D01*
X734Y514D02*
X738Y514D01*
X740Y514D02*
X747Y514D01*
X908Y514D02*
X918Y514D01*
X709Y513D02*
X713Y513D01*
X734Y513D02*
X738Y513D01*
X740Y513D02*
X745Y513D01*
X907Y513D02*
X919Y513D01*
X709Y512D02*
X713Y512D01*
X735Y512D02*
X744Y512D01*
X906Y512D02*
X909Y512D01*
X917Y512D02*
X920Y512D01*
X708Y511D02*
X712Y511D01*
X735Y511D02*
X743Y511D01*
X906Y511D02*
X908Y511D01*
X918Y511D02*
X920Y511D01*
X708Y510D02*
X712Y510D01*
X736Y510D02*
X742Y510D01*
X905Y510D02*
X907Y510D01*
X919Y510D02*
X921Y510D01*
X708Y509D02*
X712Y509D01*
X736Y509D02*
X742Y509D01*
X905Y509D02*
X907Y509D01*
X919Y509D02*
X921Y509D01*
X708Y508D02*
X712Y508D01*
X736Y508D02*
X741Y508D01*
X905Y508D02*
X906Y508D01*
X920Y508D02*
X921Y508D01*
X708Y507D02*
X711Y507D01*
X737Y507D02*
X741Y507D01*
X905Y507D02*
X906Y507D01*
X920Y507D02*
X921Y507D01*
X708Y506D02*
X711Y506D01*
X737Y506D02*
X741Y506D01*
X905Y506D02*
X906Y506D01*
X920Y506D02*
X921Y506D01*
X708Y505D02*
X711Y505D01*
X737Y505D02*
X741Y505D01*
X799Y505D02*
X801Y505D01*
X853Y505D02*
X856Y505D01*
X905Y505D02*
X906Y505D01*
X920Y505D02*
X921Y505D01*
X708Y504D02*
X711Y504D01*
X737Y504D02*
X741Y504D01*
X799Y504D02*
X803Y504D01*
X852Y504D02*
X856Y504D01*
X905Y504D02*
X906Y504D01*
X920Y504D02*
X921Y504D01*
X708Y503D02*
X711Y503D01*
X737Y503D02*
X741Y503D01*
X798Y503D02*
X803Y503D01*
X852Y503D02*
X856Y503D01*
X905Y503D02*
X906Y503D01*
X920Y503D02*
X921Y503D01*
X708Y502D02*
X711Y502D01*
X737Y502D02*
X741Y502D01*
X798Y502D02*
X802Y502D01*
X852Y502D02*
X857Y502D01*
X905Y502D02*
X906Y502D01*
X920Y502D02*
X921Y502D01*
X708Y501D02*
X711Y501D01*
X737Y501D02*
X741Y501D01*
X798Y501D02*
X802Y501D01*
X853Y501D02*
X857Y501D01*
X905Y501D02*
X933Y501D01*
X708Y500D02*
X711Y500D01*
X737Y500D02*
X741Y500D01*
X798Y500D02*
X802Y500D01*
X853Y500D02*
X857Y500D01*
X905Y500D02*
X933Y500D01*
X708Y499D02*
X711Y499D01*
X737Y499D02*
X741Y499D01*
X797Y499D02*
X802Y499D01*
X853Y499D02*
X857Y499D01*
X905Y499D02*
X933Y499D01*
X708Y498D02*
X711Y498D01*
X737Y498D02*
X741Y498D01*
X797Y498D02*
X801Y498D01*
X854Y498D02*
X858Y498D01*
X708Y497D02*
X712Y497D01*
X737Y497D02*
X741Y497D01*
X797Y497D02*
X801Y497D01*
X854Y497D02*
X858Y497D01*
X708Y496D02*
X712Y496D01*
X737Y496D02*
X741Y496D01*
X797Y496D02*
X801Y496D01*
X854Y496D02*
X858Y496D01*
X708Y495D02*
X712Y495D01*
X737Y495D02*
X741Y495D01*
X797Y495D02*
X801Y495D01*
X854Y495D02*
X858Y495D01*
X708Y494D02*
X768Y494D01*
X797Y494D02*
X801Y494D01*
X854Y494D02*
X858Y494D01*
X708Y493D02*
X768Y493D01*
X797Y493D02*
X801Y493D01*
X854Y493D02*
X858Y493D01*
X708Y492D02*
X768Y492D01*
X797Y492D02*
X801Y492D01*
X854Y492D02*
X858Y492D01*
X709Y491D02*
X768Y491D01*
X797Y491D02*
X801Y491D01*
X854Y491D02*
X858Y491D01*
X709Y490D02*
X768Y490D01*
X797Y490D02*
X801Y490D01*
X854Y490D02*
X858Y490D01*
X709Y489D02*
X767Y489D01*
X797Y489D02*
X801Y489D01*
X854Y489D02*
X858Y489D01*
X797Y488D02*
X801Y488D01*
X854Y488D02*
X858Y488D01*
X797Y487D02*
X801Y487D01*
X854Y487D02*
X858Y487D01*
X797Y486D02*
X801Y486D01*
X854Y486D02*
X858Y486D01*
X797Y485D02*
X802Y485D01*
X853Y485D02*
X858Y485D01*
X798Y484D02*
X802Y484D01*
X853Y484D02*
X858Y484D01*
X913Y484D02*
X925Y484D01*
X798Y483D02*
X802Y483D01*
X853Y483D02*
X858Y483D01*
X911Y483D02*
X927Y483D01*
X798Y482D02*
X802Y482D01*
X853Y482D02*
X857Y482D01*
X909Y482D02*
X929Y482D01*
X798Y481D02*
X803Y481D01*
X852Y481D02*
X857Y481D01*
X908Y481D02*
X913Y481D01*
X925Y481D02*
X930Y481D01*
X799Y480D02*
X803Y480D01*
X852Y480D02*
X857Y480D01*
X907Y480D02*
X911Y480D01*
X927Y480D02*
X931Y480D01*
X799Y479D02*
X804Y479D01*
X851Y479D02*
X856Y479D01*
X907Y479D02*
X909Y479D01*
X929Y479D02*
X932Y479D01*
X800Y478D02*
X804Y478D01*
X851Y478D02*
X856Y478D01*
X906Y478D02*
X908Y478D01*
X930Y478D02*
X932Y478D01*
X800Y477D02*
X805Y477D01*
X850Y477D02*
X856Y477D01*
X905Y477D02*
X907Y477D01*
X931Y477D02*
X933Y477D01*
X800Y476D02*
X806Y476D01*
X850Y476D02*
X855Y476D01*
X905Y476D02*
X907Y476D01*
X931Y476D02*
X933Y476D01*
X801Y475D02*
X807Y475D01*
X849Y475D02*
X855Y475D01*
X905Y475D02*
X906Y475D01*
X932Y475D02*
X933Y475D01*
X802Y474D02*
X807Y474D01*
X848Y474D02*
X854Y474D01*
X905Y474D02*
X906Y474D01*
X932Y474D02*
X934Y474D01*
X802Y473D02*
X809Y473D01*
X847Y473D02*
X853Y473D01*
X905Y473D02*
X906Y473D01*
X932Y473D02*
X934Y473D01*
X803Y472D02*
X810Y472D01*
X845Y472D02*
X853Y472D01*
X905Y472D02*
X906Y472D01*
X932Y472D02*
X934Y472D01*
X804Y471D02*
X811Y471D01*
X844Y471D02*
X852Y471D01*
X905Y471D02*
X906Y471D01*
X932Y471D02*
X934Y471D01*
X766Y470D02*
X768Y470D01*
X805Y470D02*
X813Y470D01*
X842Y470D02*
X851Y470D01*
X905Y470D02*
X906Y470D01*
X932Y470D02*
X934Y470D01*
X764Y469D02*
X768Y469D01*
X806Y469D02*
X815Y469D01*
X840Y469D02*
X850Y469D01*
X905Y469D02*
X906Y469D01*
X932Y469D02*
X934Y469D01*
X761Y468D02*
X768Y468D01*
X807Y468D02*
X818Y468D01*
X837Y468D02*
X849Y468D01*
X905Y468D02*
X907Y468D01*
X932Y468D02*
X933Y468D01*
X758Y467D02*
X768Y467D01*
X808Y467D02*
X825Y467D01*
X831Y467D02*
X848Y467D01*
X905Y467D02*
X907Y467D01*
X931Y467D02*
X933Y467D01*
X755Y466D02*
X768Y466D01*
X810Y466D02*
X847Y466D01*
X906Y466D02*
X908Y466D01*
X930Y466D02*
X933Y466D01*
X752Y465D02*
X767Y465D01*
X811Y465D02*
X845Y465D01*
X907Y465D02*
X909Y465D01*
X929Y465D02*
X932Y465D01*
X749Y464D02*
X766Y464D01*
X813Y464D02*
X843Y464D01*
X907Y464D02*
X910Y464D01*
X928Y464D02*
X931Y464D01*
X746Y463D02*
X763Y463D01*
X815Y463D02*
X841Y463D01*
X908Y463D02*
X912Y463D01*
X926Y463D02*
X930Y463D01*
X744Y462D02*
X760Y462D01*
X818Y462D02*
X838Y462D01*
X909Y462D02*
X915Y462D01*
X923Y462D02*
X929Y462D01*
X741Y461D02*
X757Y461D01*
X824Y461D02*
X832Y461D01*
X911Y461D02*
X928Y461D01*
X738Y460D02*
X754Y460D01*
X913Y460D02*
X926Y460D01*
X735Y459D02*
X752Y459D01*
X916Y459D02*
X923Y459D01*
X732Y458D02*
X749Y458D01*
X729Y457D02*
X747Y457D01*
X727Y456D02*
X747Y456D01*
X724Y455D02*
X740Y455D01*
X744Y455D02*
X747Y455D01*
X721Y454D02*
X737Y454D01*
X744Y454D02*
X747Y454D01*
X718Y453D02*
X734Y453D01*
X744Y453D02*
X747Y453D01*
X715Y452D02*
X731Y452D01*
X744Y452D02*
X747Y452D01*
X712Y451D02*
X728Y451D01*
X744Y451D02*
X747Y451D01*
X709Y450D02*
X726Y450D01*
X744Y450D02*
X747Y450D01*
X708Y449D02*
X723Y449D01*
X744Y449D02*
X747Y449D01*
X708Y448D02*
X720Y448D01*
X744Y448D02*
X747Y448D01*
X708Y447D02*
X716Y447D01*
X744Y447D02*
X747Y447D01*
X708Y446D02*
X713Y446D01*
X744Y446D02*
X747Y446D01*
X931Y446D02*
X933Y446D01*
X708Y445D02*
X716Y445D01*
X744Y445D02*
X747Y445D01*
X909Y445D02*
X916Y445D01*
X927Y445D02*
X933Y445D01*
X708Y444D02*
X720Y444D01*
X744Y444D02*
X747Y444D01*
X907Y444D02*
X917Y444D01*
X924Y444D02*
X933Y444D01*
X708Y443D02*
X723Y443D01*
X744Y443D02*
X747Y443D01*
X907Y443D02*
X911Y443D01*
X914Y443D02*
X918Y443D01*
X922Y443D02*
X930Y443D01*
X711Y442D02*
X726Y442D01*
X744Y442D02*
X747Y442D01*
X906Y442D02*
X908Y442D01*
X916Y442D02*
X918Y442D01*
X921Y442D02*
X926Y442D01*
X714Y441D02*
X729Y441D01*
X744Y441D02*
X747Y441D01*
X906Y441D02*
X907Y441D01*
X917Y441D02*
X919Y441D01*
X921Y441D02*
X923Y441D01*
X716Y440D02*
X732Y440D01*
X744Y440D02*
X747Y440D01*
X905Y440D02*
X907Y440D01*
X918Y440D02*
X922Y440D01*
X719Y439D02*
X735Y439D01*
X744Y439D02*
X747Y439D01*
X905Y439D02*
X906Y439D01*
X919Y439D02*
X921Y439D01*
X722Y438D02*
X737Y438D01*
X744Y438D02*
X747Y438D01*
X905Y438D02*
X906Y438D01*
X919Y438D02*
X921Y438D01*
X725Y437D02*
X740Y437D01*
X744Y437D02*
X747Y437D01*
X905Y437D02*
X906Y437D01*
X919Y437D02*
X920Y437D01*
X728Y436D02*
X747Y436D01*
X798Y436D02*
X798Y436D01*
X905Y436D02*
X906Y436D01*
X919Y436D02*
X920Y436D01*
X731Y435D02*
X747Y435D01*
X798Y435D02*
X799Y435D01*
X905Y435D02*
X906Y435D01*
X919Y435D02*
X920Y435D01*
X734Y434D02*
X749Y434D01*
X798Y434D02*
X801Y434D01*
X905Y434D02*
X906Y434D01*
X919Y434D02*
X920Y434D01*
X736Y433D02*
X752Y433D01*
X798Y433D02*
X803Y433D01*
X905Y433D02*
X906Y433D01*
X919Y433D02*
X920Y433D01*
X739Y432D02*
X755Y432D01*
X798Y432D02*
X805Y432D01*
X905Y432D02*
X906Y432D01*
X919Y432D02*
X920Y432D01*
X742Y431D02*
X758Y431D01*
X798Y431D02*
X806Y431D01*
X905Y431D02*
X933Y431D01*
X745Y430D02*
X761Y430D01*
X798Y430D02*
X808Y430D01*
X905Y430D02*
X933Y430D01*
X748Y429D02*
X764Y429D01*
X799Y429D02*
X810Y429D01*
X906Y429D02*
X933Y429D01*
X751Y428D02*
X767Y428D01*
X801Y428D02*
X811Y428D01*
X753Y427D02*
X768Y427D01*
X803Y427D02*
X813Y427D01*
X756Y426D02*
X768Y426D01*
X805Y426D02*
X815Y426D01*
X759Y425D02*
X768Y425D01*
X807Y425D02*
X816Y425D01*
X762Y424D02*
X768Y424D01*
X808Y424D02*
X818Y424D01*
X765Y423D02*
X768Y423D01*
X810Y423D02*
X820Y423D01*
X812Y422D02*
X822Y422D01*
X814Y421D02*
X823Y421D01*
X816Y420D02*
X825Y420D01*
X818Y419D02*
X827Y419D01*
X819Y418D02*
X828Y418D01*
X821Y417D02*
X830Y417D01*
X823Y416D02*
X857Y416D01*
X723Y415D02*
X726Y415D01*
X825Y415D02*
X857Y415D01*
X718Y414D02*
X731Y414D01*
X827Y414D02*
X857Y414D01*
X716Y413D02*
X733Y413D01*
X827Y413D02*
X857Y413D01*
X905Y413D02*
X925Y413D01*
X715Y412D02*
X735Y412D01*
X825Y412D02*
X857Y412D01*
X905Y412D02*
X928Y412D01*
X713Y411D02*
X736Y411D01*
X823Y411D02*
X857Y411D01*
X905Y411D02*
X930Y411D01*
X712Y410D02*
X737Y410D01*
X821Y410D02*
X831Y410D01*
X926Y410D02*
X931Y410D01*
X712Y409D02*
X722Y409D01*
X728Y409D02*
X738Y409D01*
X819Y409D02*
X829Y409D01*
X929Y409D02*
X932Y409D01*
X711Y408D02*
X718Y408D01*
X732Y408D02*
X739Y408D01*
X817Y408D02*
X827Y408D01*
X930Y408D02*
X933Y408D01*
X710Y407D02*
X717Y407D01*
X733Y407D02*
X739Y407D01*
X815Y407D02*
X825Y407D01*
X931Y407D02*
X933Y407D01*
X977Y407D02*
X978Y407D01*
X710Y406D02*
X716Y406D01*
X735Y406D02*
X740Y406D01*
X813Y406D02*
X823Y406D01*
X932Y406D02*
X933Y406D01*
X974Y406D02*
X981Y406D01*
X710Y405D02*
X715Y405D01*
X736Y405D02*
X741Y405D01*
X811Y405D02*
X822Y405D01*
X932Y405D02*
X934Y405D01*
X961Y405D02*
X966Y405D01*
X973Y405D02*
X983Y405D01*
X709Y404D02*
X714Y404D01*
X736Y404D02*
X741Y404D01*
X809Y404D02*
X820Y404D01*
X932Y404D02*
X934Y404D01*
X960Y404D02*
X968Y404D01*
X972Y404D02*
X977Y404D01*
X979Y404D02*
X984Y404D01*
X709Y403D02*
X713Y403D01*
X737Y403D02*
X741Y403D01*
X807Y403D02*
X818Y403D01*
X932Y403D02*
X934Y403D01*
X959Y403D02*
X963Y403D01*
X965Y403D02*
X969Y403D01*
X972Y403D02*
X974Y403D01*
X982Y403D02*
X984Y403D01*
X709Y402D02*
X713Y402D01*
X737Y402D02*
X742Y402D01*
X806Y402D02*
X816Y402D01*
X932Y402D02*
X934Y402D01*
X958Y402D02*
X960Y402D01*
X967Y402D02*
X969Y402D01*
X971Y402D02*
X973Y402D01*
X983Y402D02*
X985Y402D01*
X708Y401D02*
X712Y401D01*
X738Y401D02*
X742Y401D01*
X804Y401D02*
X814Y401D01*
X932Y401D02*
X934Y401D01*
X958Y401D02*
X959Y401D01*
X969Y401D02*
X972Y401D01*
X983Y401D02*
X985Y401D01*
X708Y400D02*
X712Y400D01*
X738Y400D02*
X742Y400D01*
X802Y400D02*
X813Y400D01*
X932Y400D02*
X934Y400D01*
X958Y400D02*
X959Y400D01*
X969Y400D02*
X972Y400D01*
X984Y400D02*
X985Y400D01*
X708Y399D02*
X712Y399D01*
X739Y399D02*
X742Y399D01*
X800Y399D02*
X811Y399D01*
X931Y399D02*
X933Y399D01*
X957Y399D02*
X959Y399D01*
X970Y399D02*
X972Y399D01*
X984Y399D02*
X986Y399D01*
X708Y398D02*
X712Y398D01*
X739Y398D02*
X743Y398D01*
X798Y398D02*
X809Y398D01*
X931Y398D02*
X933Y398D01*
X957Y398D02*
X958Y398D01*
X970Y398D02*
X971Y398D01*
X984Y398D02*
X986Y398D01*
X708Y397D02*
X712Y397D01*
X739Y397D02*
X743Y397D01*
X798Y397D02*
X807Y397D01*
X929Y397D02*
X932Y397D01*
X957Y397D02*
X958Y397D01*
X970Y397D02*
X971Y397D01*
X984Y397D02*
X986Y397D01*
X708Y396D02*
X711Y396D01*
X739Y396D02*
X743Y396D01*
X798Y396D02*
X805Y396D01*
X927Y396D02*
X932Y396D01*
X957Y396D02*
X958Y396D01*
X970Y396D02*
X971Y396D01*
X985Y396D02*
X986Y396D01*
X708Y395D02*
X711Y395D01*
X739Y395D02*
X743Y395D01*
X798Y395D02*
X804Y395D01*
X905Y395D02*
X930Y395D01*
X957Y395D02*
X958Y395D01*
X970Y395D02*
X971Y395D01*
X984Y395D02*
X986Y395D01*
X708Y394D02*
X711Y394D01*
X739Y394D02*
X743Y394D01*
X798Y394D02*
X802Y394D01*
X905Y394D02*
X929Y394D01*
X957Y394D02*
X958Y394D01*
X970Y394D02*
X971Y394D01*
X984Y394D02*
X986Y394D01*
X708Y393D02*
X711Y393D01*
X739Y393D02*
X743Y393D01*
X798Y393D02*
X800Y393D01*
X905Y393D02*
X926Y393D01*
X957Y393D02*
X959Y393D01*
X970Y393D02*
X971Y393D01*
X984Y393D02*
X986Y393D01*
X708Y392D02*
X711Y392D01*
X739Y392D02*
X743Y392D01*
X798Y392D02*
X798Y392D01*
X957Y392D02*
X986Y392D01*
X708Y391D02*
X711Y391D01*
X739Y391D02*
X743Y391D01*
X957Y391D02*
X986Y391D01*
X708Y390D02*
X711Y390D01*
X739Y390D02*
X743Y390D01*
X958Y390D02*
X986Y390D01*
X708Y389D02*
X712Y389D01*
X739Y389D02*
X743Y389D01*
X708Y388D02*
X712Y388D01*
X739Y388D02*
X743Y388D01*
X708Y387D02*
X712Y387D01*
X739Y387D02*
X743Y387D01*
X708Y386D02*
X712Y386D01*
X738Y386D02*
X743Y386D01*
X708Y385D02*
X768Y385D01*
X708Y384D02*
X768Y384D01*
X708Y383D02*
X768Y383D01*
X708Y382D02*
X768Y382D01*
X709Y381D02*
X768Y381D01*
X709Y380D02*
X767Y380D01*
X905Y378D02*
X906Y378D01*
X932Y378D02*
X933Y378D01*
X905Y377D02*
X906Y377D01*
X918Y377D02*
X919Y377D01*
X932Y377D02*
X933Y377D01*
X905Y376D02*
X906Y376D01*
X918Y376D02*
X919Y376D01*
X932Y376D02*
X933Y376D01*
X985Y376D02*
X986Y376D01*
X905Y375D02*
X906Y375D01*
X918Y375D02*
X919Y375D01*
X932Y375D02*
X933Y375D01*
X982Y375D02*
X986Y375D01*
X905Y374D02*
X906Y374D01*
X918Y374D02*
X919Y374D01*
X932Y374D02*
X933Y374D01*
X980Y374D02*
X986Y374D01*
X905Y373D02*
X906Y373D01*
X918Y373D02*
X919Y373D01*
X932Y373D02*
X933Y373D01*
X977Y373D02*
X984Y373D01*
X905Y372D02*
X906Y372D01*
X918Y372D02*
X919Y372D01*
X932Y372D02*
X933Y372D01*
X974Y372D02*
X981Y372D01*
X905Y371D02*
X906Y371D01*
X918Y371D02*
X919Y371D01*
X932Y371D02*
X933Y371D01*
X971Y371D02*
X979Y371D01*
X905Y370D02*
X906Y370D01*
X918Y370D02*
X919Y370D01*
X932Y370D02*
X933Y370D01*
X968Y370D02*
X976Y370D01*
X905Y369D02*
X906Y369D01*
X918Y369D02*
X919Y369D01*
X932Y369D02*
X933Y369D01*
X965Y369D02*
X976Y369D01*
X905Y368D02*
X906Y368D01*
X918Y368D02*
X919Y368D01*
X932Y368D02*
X933Y368D01*
X963Y368D02*
X970Y368D01*
X975Y368D02*
X976Y368D01*
X905Y367D02*
X906Y367D01*
X918Y367D02*
X919Y367D01*
X932Y367D02*
X933Y367D01*
X960Y367D02*
X967Y367D01*
X975Y367D02*
X976Y367D01*
X905Y366D02*
X907Y366D01*
X917Y366D02*
X919Y366D01*
X932Y366D02*
X933Y366D01*
X957Y366D02*
X964Y366D01*
X975Y366D02*
X976Y366D01*
X905Y365D02*
X933Y365D01*
X957Y365D02*
X961Y365D01*
X975Y365D02*
X976Y365D01*
X905Y364D02*
X933Y364D01*
X957Y364D02*
X960Y364D01*
X975Y364D02*
X976Y364D01*
X905Y363D02*
X933Y363D01*
X957Y363D02*
X964Y363D01*
X975Y363D02*
X976Y363D01*
X840Y362D02*
X843Y362D01*
X960Y362D02*
X967Y362D01*
X975Y362D02*
X976Y362D01*
X836Y361D02*
X848Y361D01*
X963Y361D02*
X970Y361D01*
X975Y361D02*
X976Y361D01*
X764Y360D02*
X768Y360D01*
X834Y360D02*
X849Y360D01*
X966Y360D02*
X976Y360D01*
X708Y359D02*
X712Y359D01*
X764Y359D02*
X768Y359D01*
X799Y359D02*
X801Y359D01*
X832Y359D02*
X851Y359D01*
X969Y359D02*
X976Y359D01*
X708Y358D02*
X712Y358D01*
X764Y358D02*
X768Y358D01*
X799Y358D02*
X803Y358D01*
X831Y358D02*
X852Y358D01*
X971Y358D02*
X979Y358D01*
X708Y357D02*
X712Y357D01*
X734Y357D02*
X738Y357D01*
X764Y357D02*
X768Y357D01*
X798Y357D02*
X803Y357D01*
X830Y357D02*
X853Y357D01*
X974Y357D02*
X982Y357D01*
X708Y356D02*
X712Y356D01*
X734Y356D02*
X738Y356D01*
X764Y356D02*
X768Y356D01*
X798Y356D02*
X803Y356D01*
X829Y356D02*
X839Y356D01*
X845Y356D02*
X854Y356D01*
X977Y356D02*
X984Y356D01*
X708Y355D02*
X712Y355D01*
X734Y355D02*
X738Y355D01*
X764Y355D02*
X768Y355D01*
X798Y355D02*
X802Y355D01*
X829Y355D02*
X836Y355D01*
X848Y355D02*
X855Y355D01*
X980Y355D02*
X986Y355D01*
X708Y354D02*
X712Y354D01*
X734Y354D02*
X738Y354D01*
X764Y354D02*
X768Y354D01*
X798Y354D02*
X802Y354D01*
X828Y354D02*
X835Y354D01*
X849Y354D02*
X855Y354D01*
X983Y354D02*
X986Y354D01*
X708Y353D02*
X712Y353D01*
X734Y353D02*
X738Y353D01*
X764Y353D02*
X768Y353D01*
X797Y353D02*
X801Y353D01*
X827Y353D02*
X833Y353D01*
X851Y353D02*
X856Y353D01*
X708Y352D02*
X712Y352D01*
X734Y352D02*
X738Y352D01*
X764Y352D02*
X768Y352D01*
X797Y352D02*
X801Y352D01*
X827Y352D02*
X832Y352D01*
X851Y352D02*
X856Y352D01*
X708Y351D02*
X712Y351D01*
X734Y351D02*
X738Y351D01*
X764Y351D02*
X768Y351D01*
X797Y351D02*
X801Y351D01*
X826Y351D02*
X832Y351D01*
X852Y351D02*
X857Y351D01*
X708Y350D02*
X712Y350D01*
X734Y350D02*
X738Y350D01*
X764Y350D02*
X768Y350D01*
X797Y350D02*
X801Y350D01*
X826Y350D02*
X831Y350D01*
X853Y350D02*
X857Y350D01*
X708Y349D02*
X712Y349D01*
X734Y349D02*
X738Y349D01*
X764Y349D02*
X768Y349D01*
X797Y349D02*
X801Y349D01*
X825Y349D02*
X831Y349D01*
X853Y349D02*
X857Y349D01*
X708Y348D02*
X712Y348D01*
X734Y348D02*
X738Y348D01*
X764Y348D02*
X768Y348D01*
X797Y348D02*
X801Y348D01*
X825Y348D02*
X830Y348D01*
X853Y348D02*
X858Y348D01*
X708Y347D02*
X712Y347D01*
X734Y347D02*
X738Y347D01*
X764Y347D02*
X768Y347D01*
X797Y347D02*
X801Y347D01*
X825Y347D02*
X830Y347D01*
X854Y347D02*
X858Y347D01*
X905Y347D02*
X933Y347D01*
X708Y346D02*
X712Y346D01*
X734Y346D02*
X738Y346D01*
X764Y346D02*
X768Y346D01*
X797Y346D02*
X801Y346D01*
X824Y346D02*
X829Y346D01*
X854Y346D02*
X858Y346D01*
X905Y346D02*
X933Y346D01*
X708Y345D02*
X712Y345D01*
X734Y345D02*
X738Y345D01*
X764Y345D02*
X768Y345D01*
X797Y345D02*
X801Y345D01*
X824Y345D02*
X829Y345D01*
X854Y345D02*
X858Y345D01*
X905Y345D02*
X933Y345D01*
X708Y344D02*
X712Y344D01*
X734Y344D02*
X738Y344D01*
X764Y344D02*
X768Y344D01*
X797Y344D02*
X801Y344D01*
X823Y344D02*
X828Y344D01*
X854Y344D02*
X858Y344D01*
X929Y344D02*
X932Y344D01*
X708Y343D02*
X712Y343D01*
X734Y343D02*
X738Y343D01*
X764Y343D02*
X768Y343D01*
X797Y343D02*
X801Y343D01*
X823Y343D02*
X828Y343D01*
X854Y343D02*
X858Y343D01*
X927Y343D02*
X931Y343D01*
X708Y342D02*
X712Y342D01*
X734Y342D02*
X738Y342D01*
X764Y342D02*
X768Y342D01*
X797Y342D02*
X801Y342D01*
X822Y342D02*
X827Y342D01*
X854Y342D02*
X858Y342D01*
X925Y342D02*
X929Y342D01*
X708Y341D02*
X712Y341D01*
X734Y341D02*
X738Y341D01*
X764Y341D02*
X768Y341D01*
X798Y341D02*
X802Y341D01*
X822Y341D02*
X827Y341D01*
X854Y341D02*
X858Y341D01*
X924Y341D02*
X928Y341D01*
X984Y341D02*
X986Y341D01*
X708Y340D02*
X712Y340D01*
X734Y340D02*
X738Y340D01*
X764Y340D02*
X768Y340D01*
X798Y340D02*
X802Y340D01*
X821Y340D02*
X827Y340D01*
X854Y340D02*
X858Y340D01*
X922Y340D02*
X926Y340D01*
X984Y340D02*
X986Y340D01*
X708Y339D02*
X712Y339D01*
X734Y339D02*
X738Y339D01*
X764Y339D02*
X768Y339D01*
X798Y339D02*
X803Y339D01*
X820Y339D02*
X826Y339D01*
X854Y339D02*
X858Y339D01*
X920Y339D02*
X925Y339D01*
X984Y339D02*
X986Y339D01*
X708Y338D02*
X712Y338D01*
X734Y338D02*
X738Y338D01*
X764Y338D02*
X768Y338D01*
X799Y338D02*
X804Y338D01*
X820Y338D02*
X826Y338D01*
X854Y338D02*
X858Y338D01*
X919Y338D02*
X923Y338D01*
X984Y338D02*
X986Y338D01*
X708Y337D02*
X712Y337D01*
X734Y337D02*
X738Y337D01*
X764Y337D02*
X768Y337D01*
X799Y337D02*
X805Y337D01*
X819Y337D02*
X825Y337D01*
X854Y337D02*
X858Y337D01*
X917Y337D02*
X922Y337D01*
X984Y337D02*
X986Y337D01*
X708Y336D02*
X712Y336D01*
X734Y336D02*
X738Y336D01*
X764Y336D02*
X768Y336D01*
X800Y336D02*
X806Y336D01*
X817Y336D02*
X824Y336D01*
X853Y336D02*
X858Y336D01*
X916Y336D02*
X920Y336D01*
X984Y336D02*
X986Y336D01*
X708Y335D02*
X712Y335D01*
X734Y335D02*
X738Y335D01*
X764Y335D02*
X768Y335D01*
X800Y335D02*
X808Y335D01*
X815Y335D02*
X824Y335D01*
X853Y335D02*
X857Y335D01*
X914Y335D02*
X918Y335D01*
X984Y335D02*
X986Y335D01*
X708Y334D02*
X768Y334D01*
X801Y334D02*
X823Y334D01*
X853Y334D02*
X857Y334D01*
X913Y334D02*
X917Y334D01*
X984Y334D02*
X986Y334D01*
X708Y333D02*
X768Y333D01*
X802Y333D02*
X822Y333D01*
X852Y333D02*
X857Y333D01*
X911Y333D02*
X915Y333D01*
X984Y333D02*
X986Y333D01*
X708Y332D02*
X768Y332D01*
X803Y332D02*
X821Y332D01*
X852Y332D02*
X857Y332D01*
X910Y332D02*
X914Y332D01*
X984Y332D02*
X986Y332D01*
X708Y331D02*
X768Y331D01*
X805Y331D02*
X819Y331D01*
X851Y331D02*
X856Y331D01*
X908Y331D02*
X912Y331D01*
X984Y331D02*
X986Y331D01*
X708Y330D02*
X768Y330D01*
X806Y330D02*
X818Y330D01*
X851Y330D02*
X856Y330D01*
X906Y330D02*
X910Y330D01*
X984Y330D02*
X986Y330D01*
X708Y329D02*
X768Y329D01*
X809Y329D02*
X815Y329D01*
X851Y329D02*
X855Y329D01*
X905Y329D02*
X908Y329D01*
X984Y329D02*
X986Y329D01*
X853Y328D02*
X855Y328D01*
X905Y328D02*
X933Y328D01*
X957Y328D02*
X986Y328D01*
X905Y327D02*
X933Y327D01*
X957Y327D02*
X986Y327D01*
X729Y308D02*
X744Y308D01*
X725Y307D02*
X748Y307D01*
X723Y306D02*
X751Y306D01*
X721Y305D02*
X753Y305D01*
X719Y304D02*
X755Y304D01*
X718Y303D02*
X756Y303D01*
X717Y302D02*
X729Y302D01*
X744Y302D02*
X757Y302D01*
X716Y301D02*
X726Y301D01*
X748Y301D02*
X758Y301D01*
X715Y300D02*
X723Y300D01*
X751Y300D02*
X759Y300D01*
X714Y299D02*
X721Y299D01*
X753Y299D02*
X760Y299D01*
X713Y298D02*
X720Y298D01*
X754Y298D02*
X761Y298D01*
X713Y297D02*
X719Y297D01*
X755Y297D02*
X762Y297D01*
X712Y296D02*
X718Y296D01*
X757Y296D02*
X763Y296D01*
X711Y295D02*
X717Y295D01*
X758Y295D02*
X763Y295D01*
X810Y295D02*
X819Y295D01*
X711Y294D02*
X716Y294D01*
X758Y294D02*
X764Y294D01*
X807Y294D02*
X822Y294D01*
X710Y293D02*
X715Y293D01*
X759Y293D02*
X764Y293D01*
X805Y293D02*
X824Y293D01*
X710Y292D02*
X715Y292D01*
X760Y292D02*
X765Y292D01*
X804Y292D02*
X825Y292D01*
X710Y291D02*
X714Y291D01*
X760Y291D02*
X765Y291D01*
X803Y291D02*
X826Y291D01*
X709Y290D02*
X714Y290D01*
X761Y290D02*
X766Y290D01*
X802Y290D02*
X827Y290D01*
X709Y289D02*
X713Y289D01*
X761Y289D02*
X766Y289D01*
X801Y289D02*
X809Y289D01*
X820Y289D02*
X828Y289D01*
X990Y289D02*
X990Y289D01*
X709Y288D02*
X713Y288D01*
X762Y288D02*
X766Y288D01*
X800Y288D02*
X807Y288D01*
X822Y288D02*
X829Y288D01*
X989Y288D02*
X990Y288D01*
X709Y287D02*
X713Y287D01*
X762Y287D02*
X766Y287D01*
X800Y287D02*
X806Y287D01*
X824Y287D02*
X829Y287D01*
X987Y287D02*
X990Y287D01*
X708Y286D02*
X712Y286D01*
X763Y286D02*
X767Y286D01*
X799Y286D02*
X805Y286D01*
X825Y286D02*
X830Y286D01*
X986Y286D02*
X990Y286D01*
X708Y285D02*
X712Y285D01*
X763Y285D02*
X767Y285D01*
X799Y285D02*
X804Y285D01*
X826Y285D02*
X830Y285D01*
X910Y285D02*
X910Y285D01*
X984Y285D02*
X990Y285D01*
X708Y284D02*
X712Y284D01*
X763Y284D02*
X767Y284D01*
X799Y284D02*
X803Y284D01*
X826Y284D02*
X831Y284D01*
X909Y284D02*
X912Y284D01*
X982Y284D02*
X990Y284D01*
X708Y283D02*
X712Y283D01*
X763Y283D02*
X767Y283D01*
X798Y283D02*
X803Y283D01*
X827Y283D02*
X831Y283D01*
X908Y283D02*
X915Y283D01*
X980Y283D02*
X990Y283D01*
X708Y282D02*
X712Y282D01*
X763Y282D02*
X767Y282D01*
X798Y282D02*
X802Y282D01*
X827Y282D02*
X832Y282D01*
X907Y282D02*
X917Y282D01*
X978Y282D02*
X989Y282D01*
X708Y281D02*
X712Y281D01*
X764Y281D02*
X768Y281D01*
X798Y281D02*
X802Y281D01*
X828Y281D02*
X832Y281D01*
X906Y281D02*
X920Y281D01*
X976Y281D02*
X989Y281D01*
X708Y280D02*
X711Y280D01*
X764Y280D02*
X768Y280D01*
X798Y280D02*
X802Y280D01*
X828Y280D02*
X832Y280D01*
X906Y280D02*
X923Y280D01*
X973Y280D02*
X989Y280D01*
X708Y279D02*
X711Y279D01*
X764Y279D02*
X768Y279D01*
X798Y279D02*
X801Y279D01*
X828Y279D02*
X832Y279D01*
X905Y279D02*
X927Y279D01*
X970Y279D02*
X989Y279D01*
X708Y278D02*
X711Y278D01*
X764Y278D02*
X768Y278D01*
X798Y278D02*
X801Y278D01*
X829Y278D02*
X832Y278D01*
X905Y278D02*
X931Y278D01*
X966Y278D02*
X989Y278D01*
X708Y277D02*
X711Y277D01*
X764Y277D02*
X768Y277D01*
X797Y277D02*
X801Y277D01*
X829Y277D02*
X833Y277D01*
X905Y277D02*
X937Y277D01*
X961Y277D02*
X989Y277D01*
X708Y276D02*
X711Y276D01*
X764Y276D02*
X768Y276D01*
X797Y276D02*
X801Y276D01*
X829Y276D02*
X833Y276D01*
X904Y276D02*
X989Y276D01*
X708Y275D02*
X711Y275D01*
X764Y275D02*
X768Y275D01*
X797Y275D02*
X801Y275D01*
X829Y275D02*
X833Y275D01*
X904Y275D02*
X988Y275D01*
X708Y274D02*
X711Y274D01*
X764Y274D02*
X768Y274D01*
X797Y274D02*
X801Y274D01*
X829Y274D02*
X833Y274D01*
X904Y274D02*
X988Y274D01*
X708Y273D02*
X711Y273D01*
X764Y273D02*
X768Y273D01*
X797Y273D02*
X801Y273D01*
X829Y273D02*
X833Y273D01*
X904Y273D02*
X988Y273D01*
X708Y272D02*
X712Y272D01*
X764Y272D02*
X768Y272D01*
X797Y272D02*
X801Y272D01*
X829Y272D02*
X833Y272D01*
X904Y272D02*
X988Y272D01*
X708Y271D02*
X712Y271D01*
X764Y271D02*
X768Y271D01*
X797Y271D02*
X801Y271D01*
X829Y271D02*
X833Y271D01*
X904Y271D02*
X988Y271D01*
X708Y270D02*
X712Y270D01*
X764Y270D02*
X768Y270D01*
X797Y270D02*
X801Y270D01*
X829Y270D02*
X833Y270D01*
X904Y270D02*
X988Y270D01*
X708Y269D02*
X712Y269D01*
X764Y269D02*
X768Y269D01*
X798Y269D02*
X801Y269D01*
X829Y269D02*
X833Y269D01*
X904Y269D02*
X988Y269D01*
X708Y268D02*
X712Y268D01*
X764Y268D02*
X768Y268D01*
X798Y268D02*
X801Y268D01*
X828Y268D02*
X832Y268D01*
X905Y268D02*
X988Y268D01*
X708Y267D02*
X712Y267D01*
X764Y267D02*
X768Y267D01*
X798Y267D02*
X802Y267D01*
X828Y267D02*
X832Y267D01*
X905Y267D02*
X988Y267D01*
X708Y266D02*
X768Y266D01*
X798Y266D02*
X857Y266D01*
X905Y266D02*
X987Y266D01*
X708Y265D02*
X768Y265D01*
X798Y265D02*
X857Y265D01*
X905Y265D02*
X987Y265D01*
X708Y264D02*
X768Y264D01*
X798Y264D02*
X857Y264D01*
X905Y264D02*
X987Y264D01*
X709Y263D02*
X768Y263D01*
X798Y263D02*
X857Y263D01*
X905Y263D02*
X987Y263D01*
X709Y262D02*
X767Y262D01*
X798Y262D02*
X857Y262D01*
X905Y262D02*
X987Y262D01*
X709Y261D02*
X767Y261D01*
X798Y261D02*
X857Y261D01*
X905Y261D02*
X987Y261D01*
X905Y260D02*
X987Y260D01*
X905Y259D02*
X987Y259D01*
X905Y258D02*
X987Y258D01*
X905Y257D02*
X987Y257D01*
X905Y256D02*
X986Y256D01*
X905Y255D02*
X986Y255D01*
X905Y254D02*
X986Y254D01*
X905Y253D02*
X986Y253D01*
X905Y252D02*
X986Y252D01*
X905Y251D02*
X986Y251D01*
X905Y250D02*
X986Y250D01*
X905Y249D02*
X986Y249D01*
X905Y248D02*
X986Y248D01*
X905Y247D02*
X986Y247D01*
X905Y246D02*
X986Y246D01*
X905Y245D02*
X986Y245D01*
X905Y244D02*
X986Y244D01*
X905Y243D02*
X986Y243D01*
X905Y242D02*
X986Y242D01*
X905Y241D02*
X985Y241D01*
X905Y240D02*
X985Y240D01*
X905Y239D02*
X985Y239D01*
X905Y238D02*
X985Y238D01*
X905Y237D02*
X985Y237D01*
X905Y236D02*
X985Y236D01*
X904Y235D02*
X985Y235D01*
X904Y234D02*
X985Y234D01*
X904Y233D02*
X985Y233D01*
X904Y232D02*
X985Y232D01*
X904Y231D02*
X985Y231D01*
X904Y230D02*
X985Y230D01*
X903Y229D02*
X985Y229D01*
X903Y228D02*
X985Y228D01*
X903Y227D02*
X985Y227D01*
X902Y226D02*
X985Y226D01*
X902Y225D02*
X985Y225D01*
X902Y224D02*
X985Y224D01*
X901Y223D02*
X985Y223D01*
X901Y222D02*
X985Y222D01*
X900Y221D02*
X985Y221D01*
X899Y220D02*
X985Y220D01*
X899Y219D02*
X985Y219D01*
X897Y218D02*
X985Y218D01*
X681Y217D02*
X681Y217D01*
X895Y217D02*
X985Y217D01*
X681Y216D02*
X683Y216D01*
X892Y216D02*
X985Y216D01*
X680Y215D02*
X685Y215D01*
X871Y215D02*
X877Y215D01*
X885Y215D02*
X985Y215D01*
X680Y214D02*
X688Y214D01*
X870Y214D02*
X985Y214D01*
X680Y213D02*
X690Y213D01*
X850Y213D02*
X850Y213D01*
X869Y213D02*
X985Y213D01*
X680Y212D02*
X693Y212D01*
X850Y212D02*
X851Y212D01*
X868Y212D02*
X985Y212D01*
X680Y211D02*
X696Y211D01*
X849Y211D02*
X852Y211D01*
X867Y211D02*
X986Y211D01*
X680Y210D02*
X698Y210D01*
X849Y210D02*
X853Y210D01*
X865Y210D02*
X986Y210D01*
X680Y209D02*
X702Y209D01*
X848Y209D02*
X854Y209D01*
X864Y209D02*
X986Y209D01*
X680Y208D02*
X705Y208D01*
X847Y208D02*
X858Y208D01*
X860Y208D02*
X986Y208D01*
X680Y207D02*
X709Y207D01*
X825Y207D02*
X828Y207D01*
X846Y207D02*
X986Y207D01*
X680Y206D02*
X714Y206D01*
X824Y206D02*
X830Y206D01*
X845Y206D02*
X986Y206D01*
X680Y205D02*
X719Y205D01*
X750Y205D02*
X759Y205D01*
X823Y205D02*
X832Y205D01*
X843Y205D02*
X986Y205D01*
X680Y204D02*
X726Y204D01*
X743Y204D02*
X765Y204D01*
X823Y204D02*
X833Y204D01*
X841Y204D02*
X986Y204D01*
X680Y203D02*
X769Y203D01*
X822Y203D02*
X835Y203D01*
X838Y203D02*
X986Y203D01*
X680Y202D02*
X772Y202D01*
X822Y202D02*
X986Y202D01*
X680Y201D02*
X774Y201D01*
X822Y201D02*
X987Y201D01*
X680Y200D02*
X777Y200D01*
X822Y200D02*
X987Y200D01*
X680Y199D02*
X779Y199D01*
X822Y199D02*
X987Y199D01*
X680Y198D02*
X780Y198D01*
X822Y198D02*
X987Y198D01*
X680Y197D02*
X782Y197D01*
X821Y197D02*
X987Y197D01*
X680Y196D02*
X784Y196D01*
X821Y196D02*
X987Y196D01*
X680Y195D02*
X785Y195D01*
X821Y195D02*
X987Y195D01*
X680Y194D02*
X787Y194D01*
X821Y194D02*
X988Y194D01*
X680Y193D02*
X788Y193D01*
X820Y193D02*
X988Y193D01*
X680Y192D02*
X790Y192D01*
X820Y192D02*
X988Y192D01*
X680Y191D02*
X791Y191D01*
X819Y191D02*
X988Y191D01*
X680Y190D02*
X792Y190D01*
X819Y190D02*
X988Y190D01*
X680Y189D02*
X793Y189D01*
X818Y189D02*
X989Y189D01*
X680Y188D02*
X795Y188D01*
X818Y188D02*
X989Y188D01*
X680Y187D02*
X796Y187D01*
X817Y187D02*
X989Y187D01*
X680Y186D02*
X797Y186D01*
X816Y186D02*
X989Y186D01*
X680Y185D02*
X798Y185D01*
X815Y185D02*
X990Y185D01*
X680Y184D02*
X799Y184D01*
X814Y184D02*
X990Y184D01*
X680Y183D02*
X800Y183D01*
X813Y183D02*
X990Y183D01*
X680Y182D02*
X802Y182D01*
X811Y182D02*
X991Y182D01*
X680Y181D02*
X991Y181D01*
X681Y180D02*
X991Y180D01*
X681Y179D02*
X992Y179D01*
X681Y178D02*
X992Y178D01*
X681Y177D02*
X992Y177D01*
X681Y176D02*
X993Y176D01*
X681Y175D02*
X993Y175D01*
X682Y174D02*
X994Y174D01*
X682Y173D02*
X994Y173D01*
X682Y172D02*
X995Y172D01*
X682Y171D02*
X995Y171D01*
X682Y170D02*
X996Y170D01*
X682Y169D02*
X997Y169D01*
X683Y168D02*
X997Y168D01*
X683Y167D02*
X998Y167D01*
X683Y166D02*
X999Y166D01*
X683Y165D02*
X1000Y165D01*
X684Y164D02*
X1001Y164D01*
X684Y163D02*
X1002Y163D01*
X684Y162D02*
X1004Y162D01*
X684Y161D02*
X1004Y161D01*
X685Y160D02*
X1001Y160D01*
X685Y159D02*
X998Y159D01*
X685Y158D02*
X996Y158D01*
X685Y157D02*
X993Y157D01*
X686Y156D02*
X991Y156D01*
X686Y155D02*
X989Y155D01*
X686Y154D02*
X987Y154D01*
X686Y153D02*
X985Y153D01*
X687Y152D02*
X983Y152D01*
X687Y151D02*
X982Y151D01*
X687Y150D02*
X980Y150D01*
X688Y149D02*
X979Y149D01*
X688Y148D02*
X977Y148D01*
X689Y147D02*
X976Y147D01*
X689Y146D02*
X975Y146D01*
X689Y145D02*
X974Y145D01*
X690Y144D02*
X973Y144D01*
X690Y143D02*
X973Y143D01*
X690Y142D02*
X972Y142D01*
X691Y141D02*
X971Y141D01*
X691Y140D02*
X971Y140D01*
X692Y139D02*
X970Y139D01*
X692Y138D02*
X970Y138D01*
X692Y137D02*
X970Y137D01*
X693Y136D02*
X970Y136D01*
X693Y135D02*
X970Y135D01*
X694Y134D02*
X970Y134D01*
X694Y133D02*
X970Y133D01*
X695Y132D02*
X970Y132D01*
X695Y131D02*
X970Y131D01*
X696Y130D02*
X970Y130D01*
X696Y129D02*
X970Y129D01*
X697Y128D02*
X970Y128D01*
X697Y127D02*
X970Y127D01*
X698Y126D02*
X970Y126D01*
X699Y125D02*
X970Y125D01*
X699Y124D02*
X970Y124D01*
X700Y123D02*
X971Y123D01*
X700Y122D02*
X971Y122D01*
X701Y121D02*
X971Y121D01*
X702Y120D02*
X971Y120D01*
X702Y119D02*
X971Y119D01*
X703Y118D02*
X971Y118D01*
X704Y117D02*
X971Y117D01*
X704Y116D02*
X971Y116D01*
X705Y115D02*
X971Y115D01*
X706Y114D02*
X971Y114D01*
X706Y113D02*
X971Y113D01*
X707Y112D02*
X971Y112D01*
X708Y111D02*
X971Y111D01*
X709Y110D02*
X971Y110D01*
X709Y109D02*
X971Y109D01*
X710Y108D02*
X971Y108D01*
X711Y107D02*
X971Y107D01*
X712Y106D02*
X971Y106D01*
X713Y105D02*
X971Y105D01*
X714Y104D02*
X971Y104D01*
X715Y103D02*
X971Y103D01*
X716Y102D02*
X971Y102D01*
X717Y101D02*
X971Y101D01*
X718Y100D02*
X970Y100D01*
X719Y99D02*
X970Y99D01*
X720Y98D02*
X970Y98D01*
X721Y97D02*
X970Y97D01*
X722Y96D02*
X970Y96D01*
X723Y95D02*
X970Y95D01*
X724Y94D02*
X970Y94D01*
X725Y93D02*
X969Y93D01*
X726Y92D02*
X969Y92D01*
X728Y91D02*
X969Y91D01*
X729Y90D02*
X969Y90D01*
X730Y89D02*
X969Y89D01*
X732Y88D02*
X968Y88D01*
X733Y87D02*
X968Y87D01*
X735Y86D02*
X968Y86D01*
X736Y85D02*
X967Y85D01*
X738Y84D02*
X967Y84D01*
X739Y83D02*
X966Y83D01*
X741Y82D02*
X966Y82D01*
X743Y81D02*
X965Y81D01*
X744Y80D02*
X964Y80D01*
X746Y79D02*
X963Y79D01*
X748Y78D02*
X962Y78D01*
X750Y77D02*
X958Y77D01*
X753Y76D02*
X937Y76D01*
X940Y76D02*
X953Y76D01*
X755Y75D02*
X936Y75D01*
X757Y74D02*
X916Y74D01*
X918Y74D02*
X935Y74D01*
X760Y73D02*
X915Y73D01*
X918Y73D02*
X934Y73D01*
X763Y72D02*
X915Y72D01*
X919Y72D02*
X933Y72D01*
X765Y71D02*
X914Y71D01*
X920Y71D02*
X931Y71D01*
X769Y70D02*
X914Y70D01*
X922Y70D02*
X930Y70D01*
X772Y69D02*
X913Y69D01*
X924Y69D02*
X927Y69D01*
X776Y68D02*
X890Y68D01*
X895Y68D02*
X912Y68D01*
X780Y67D02*
X889Y67D01*
X897Y67D02*
X911Y67D01*
X785Y66D02*
X818Y66D01*
X825Y66D02*
X889Y66D01*
X899Y66D02*
X909Y66D01*
X792Y65D02*
X809Y65D01*
X832Y65D02*
X888Y65D01*
X901Y65D02*
X907Y65D01*
X836Y64D02*
X888Y64D01*
X902Y64D02*
X904Y64D01*
X839Y63D02*
X888Y63D01*
X842Y62D02*
X888Y62D01*
X844Y61D02*
X888Y61D01*
X846Y60D02*
X887Y60D01*
X848Y59D02*
X887Y59D01*
X849Y58D02*
X887Y58D01*
X851Y57D02*
X887Y57D01*
X853Y56D02*
X886Y56D01*
X854Y55D02*
X886Y55D01*
X856Y54D02*
X886Y54D01*
X857Y53D02*
X885Y53D01*
X858Y52D02*
X885Y52D01*
X859Y51D02*
X885Y51D01*
X861Y50D02*
X884Y50D01*
X862Y49D02*
X883Y49D01*
X863Y48D02*
X883Y48D01*
X864Y47D02*
X882Y47D01*
X865Y46D02*
X881Y46D01*
X866Y45D02*
X880Y45D01*
X867Y44D02*
X879Y44D01*
X869Y43D02*
X877Y43D01*
D02*
G04 End of Silk1*
M02*