G04 MADE WITH FRITZING*
G04 WWW.FRITZING.ORG*
G04 DOUBLE SIDED*
G04 HOLES PLATED*
G04 CONTOUR ON CENTER OF CONTOUR VECTOR*
%ASAXBY*%
%FSLAX23Y23*%
%MOIN*%
%OFA0B0*%
%SFA1.0B1.0*%
%ADD10R,1.123170X1.030680X1.107170X1.014680*%
%ADD11C,0.008000*%
%ADD12R,0.354200X0.795200X0.338200X0.779200*%
%ADD13R,0.063000X0.173200X0.047000X0.157200*%
%ADD14R,0.001000X0.001000*%
%LNSILK0*%
G90*
G70*
G54D11*
X4Y1027D02*
X1119Y1027D01*
X1119Y4D01*
X4Y4D01*
X4Y1027D01*
D02*
X243Y908D02*
X589Y908D01*
X589Y121D01*
X243Y121D01*
X243Y908D01*
D02*
X534Y597D02*
X589Y597D01*
X589Y432D01*
X534Y432D01*
X534Y597D01*
D02*
G54D14*
X282Y869D02*
X549Y869D01*
X282Y868D02*
X549Y868D01*
X282Y867D02*
X549Y867D01*
X282Y866D02*
X549Y866D01*
X282Y865D02*
X549Y865D01*
X282Y864D02*
X549Y864D01*
X282Y863D02*
X549Y863D01*
X282Y862D02*
X549Y862D01*
X282Y861D02*
X289Y861D01*
X542Y861D02*
X549Y861D01*
X282Y860D02*
X289Y860D01*
X542Y860D02*
X549Y860D01*
X282Y859D02*
X289Y859D01*
X542Y859D02*
X549Y859D01*
X282Y858D02*
X289Y858D01*
X542Y858D02*
X549Y858D01*
X282Y857D02*
X289Y857D01*
X542Y857D02*
X549Y857D01*
X282Y856D02*
X289Y856D01*
X542Y856D02*
X549Y856D01*
X282Y855D02*
X289Y855D01*
X542Y855D02*
X549Y855D01*
X282Y854D02*
X289Y854D01*
X542Y854D02*
X549Y854D01*
X282Y853D02*
X289Y853D01*
X542Y853D02*
X549Y853D01*
X282Y852D02*
X289Y852D01*
X542Y852D02*
X549Y852D01*
X282Y851D02*
X289Y851D01*
X542Y851D02*
X549Y851D01*
X282Y850D02*
X289Y850D01*
X542Y850D02*
X549Y850D01*
X282Y849D02*
X289Y849D01*
X542Y849D02*
X549Y849D01*
X282Y848D02*
X289Y848D01*
X542Y848D02*
X549Y848D01*
X282Y847D02*
X289Y847D01*
X542Y847D02*
X549Y847D01*
X282Y846D02*
X289Y846D01*
X542Y846D02*
X549Y846D01*
X282Y845D02*
X289Y845D01*
X542Y845D02*
X549Y845D01*
X282Y844D02*
X289Y844D01*
X542Y844D02*
X549Y844D01*
X282Y843D02*
X289Y843D01*
X542Y843D02*
X549Y843D01*
X282Y842D02*
X289Y842D01*
X542Y842D02*
X549Y842D01*
X282Y841D02*
X289Y841D01*
X542Y841D02*
X549Y841D01*
X282Y840D02*
X289Y840D01*
X542Y840D02*
X549Y840D01*
X282Y839D02*
X289Y839D01*
X542Y839D02*
X549Y839D01*
X282Y838D02*
X289Y838D01*
X542Y838D02*
X549Y838D01*
X282Y837D02*
X289Y837D01*
X542Y837D02*
X549Y837D01*
X282Y836D02*
X289Y836D01*
X542Y836D02*
X549Y836D01*
X282Y835D02*
X289Y835D01*
X542Y835D02*
X549Y835D01*
X282Y834D02*
X289Y834D01*
X542Y834D02*
X549Y834D01*
X282Y833D02*
X289Y833D01*
X542Y833D02*
X549Y833D01*
X282Y832D02*
X289Y832D01*
X542Y832D02*
X549Y832D01*
X282Y831D02*
X289Y831D01*
X542Y831D02*
X549Y831D01*
X282Y830D02*
X289Y830D01*
X542Y830D02*
X549Y830D01*
X282Y829D02*
X289Y829D01*
X542Y829D02*
X549Y829D01*
X282Y828D02*
X289Y828D01*
X542Y828D02*
X549Y828D01*
X282Y827D02*
X289Y827D01*
X542Y827D02*
X549Y827D01*
X282Y826D02*
X289Y826D01*
X542Y826D02*
X549Y826D01*
X282Y825D02*
X289Y825D01*
X542Y825D02*
X549Y825D01*
X282Y824D02*
X289Y824D01*
X542Y824D02*
X549Y824D01*
X282Y823D02*
X289Y823D01*
X542Y823D02*
X549Y823D01*
X282Y822D02*
X289Y822D01*
X542Y822D02*
X549Y822D01*
X282Y821D02*
X289Y821D01*
X542Y821D02*
X549Y821D01*
X282Y820D02*
X289Y820D01*
X542Y820D02*
X549Y820D01*
X282Y819D02*
X289Y819D01*
X542Y819D02*
X549Y819D01*
X282Y818D02*
X289Y818D01*
X542Y818D02*
X549Y818D01*
X282Y817D02*
X289Y817D01*
X542Y817D02*
X549Y817D01*
X282Y816D02*
X289Y816D01*
X542Y816D02*
X549Y816D01*
X282Y815D02*
X289Y815D01*
X542Y815D02*
X549Y815D01*
X282Y814D02*
X289Y814D01*
X542Y814D02*
X549Y814D01*
X282Y813D02*
X289Y813D01*
X542Y813D02*
X549Y813D01*
X282Y812D02*
X289Y812D01*
X542Y812D02*
X549Y812D01*
X282Y811D02*
X289Y811D01*
X542Y811D02*
X549Y811D01*
X282Y810D02*
X289Y810D01*
X542Y810D02*
X549Y810D01*
X282Y809D02*
X289Y809D01*
X542Y809D02*
X549Y809D01*
X282Y808D02*
X289Y808D01*
X542Y808D02*
X549Y808D01*
X282Y807D02*
X289Y807D01*
X542Y807D02*
X549Y807D01*
X282Y806D02*
X289Y806D01*
X542Y806D02*
X549Y806D01*
X282Y805D02*
X289Y805D01*
X542Y805D02*
X549Y805D01*
X282Y804D02*
X289Y804D01*
X542Y804D02*
X549Y804D01*
X282Y803D02*
X289Y803D01*
X542Y803D02*
X549Y803D01*
X282Y802D02*
X289Y802D01*
X542Y802D02*
X549Y802D01*
X282Y801D02*
X289Y801D01*
X542Y801D02*
X549Y801D01*
X282Y800D02*
X289Y800D01*
X542Y800D02*
X549Y800D01*
X282Y799D02*
X289Y799D01*
X542Y799D02*
X549Y799D01*
X282Y798D02*
X289Y798D01*
X542Y798D02*
X549Y798D01*
X282Y797D02*
X289Y797D01*
X542Y797D02*
X549Y797D01*
X282Y796D02*
X289Y796D01*
X542Y796D02*
X549Y796D01*
X282Y795D02*
X289Y795D01*
X542Y795D02*
X549Y795D01*
X282Y794D02*
X289Y794D01*
X542Y794D02*
X549Y794D01*
X282Y793D02*
X289Y793D01*
X542Y793D02*
X549Y793D01*
X282Y792D02*
X289Y792D01*
X542Y792D02*
X549Y792D01*
X282Y791D02*
X289Y791D01*
X542Y791D02*
X549Y791D01*
X282Y790D02*
X289Y790D01*
X542Y790D02*
X549Y790D01*
X282Y789D02*
X289Y789D01*
X542Y789D02*
X549Y789D01*
X282Y788D02*
X289Y788D01*
X542Y788D02*
X549Y788D01*
X282Y787D02*
X289Y787D01*
X542Y787D02*
X549Y787D01*
X282Y786D02*
X289Y786D01*
X542Y786D02*
X549Y786D01*
X282Y785D02*
X289Y785D01*
X542Y785D02*
X549Y785D01*
X282Y784D02*
X289Y784D01*
X542Y784D02*
X549Y784D01*
X282Y783D02*
X289Y783D01*
X542Y783D02*
X549Y783D01*
X282Y782D02*
X289Y782D01*
X542Y782D02*
X549Y782D01*
X282Y781D02*
X289Y781D01*
X542Y781D02*
X549Y781D01*
X282Y780D02*
X289Y780D01*
X542Y780D02*
X549Y780D01*
X282Y779D02*
X289Y779D01*
X542Y779D02*
X549Y779D01*
X282Y778D02*
X289Y778D01*
X542Y778D02*
X549Y778D01*
X282Y777D02*
X289Y777D01*
X542Y777D02*
X549Y777D01*
X282Y776D02*
X289Y776D01*
X542Y776D02*
X549Y776D01*
X282Y775D02*
X289Y775D01*
X542Y775D02*
X549Y775D01*
X282Y774D02*
X289Y774D01*
X542Y774D02*
X549Y774D01*
X282Y773D02*
X289Y773D01*
X542Y773D02*
X549Y773D01*
X282Y772D02*
X289Y772D01*
X542Y772D02*
X549Y772D01*
X282Y771D02*
X289Y771D01*
X542Y771D02*
X549Y771D01*
X282Y770D02*
X289Y770D01*
X542Y770D02*
X549Y770D01*
X282Y769D02*
X289Y769D01*
X542Y769D02*
X549Y769D01*
X282Y768D02*
X289Y768D01*
X542Y768D02*
X549Y768D01*
X282Y767D02*
X289Y767D01*
X542Y767D02*
X549Y767D01*
X282Y766D02*
X289Y766D01*
X542Y766D02*
X549Y766D01*
X282Y765D02*
X289Y765D01*
X542Y765D02*
X549Y765D01*
X282Y764D02*
X289Y764D01*
X542Y764D02*
X549Y764D01*
X282Y763D02*
X289Y763D01*
X542Y763D02*
X549Y763D01*
X282Y762D02*
X289Y762D01*
X542Y762D02*
X549Y762D01*
X282Y761D02*
X289Y761D01*
X542Y761D02*
X549Y761D01*
X282Y760D02*
X289Y760D01*
X542Y760D02*
X549Y760D01*
X282Y759D02*
X289Y759D01*
X542Y759D02*
X549Y759D01*
X282Y758D02*
X289Y758D01*
X542Y758D02*
X549Y758D01*
X282Y757D02*
X289Y757D01*
X542Y757D02*
X549Y757D01*
X282Y756D02*
X289Y756D01*
X542Y756D02*
X549Y756D01*
X282Y755D02*
X289Y755D01*
X542Y755D02*
X549Y755D01*
X282Y754D02*
X289Y754D01*
X542Y754D02*
X549Y754D01*
X282Y753D02*
X289Y753D01*
X542Y753D02*
X549Y753D01*
X282Y752D02*
X289Y752D01*
X542Y752D02*
X549Y752D01*
X282Y751D02*
X289Y751D01*
X542Y751D02*
X549Y751D01*
X282Y750D02*
X289Y750D01*
X542Y750D02*
X549Y750D01*
X282Y749D02*
X289Y749D01*
X542Y749D02*
X549Y749D01*
X282Y748D02*
X289Y748D01*
X542Y748D02*
X549Y748D01*
X282Y747D02*
X289Y747D01*
X542Y747D02*
X549Y747D01*
X282Y746D02*
X289Y746D01*
X542Y746D02*
X549Y746D01*
X282Y745D02*
X289Y745D01*
X542Y745D02*
X549Y745D01*
X282Y744D02*
X289Y744D01*
X542Y744D02*
X549Y744D01*
X282Y743D02*
X289Y743D01*
X542Y743D02*
X549Y743D01*
X282Y742D02*
X289Y742D01*
X542Y742D02*
X549Y742D01*
X282Y741D02*
X289Y741D01*
X542Y741D02*
X549Y741D01*
X282Y740D02*
X289Y740D01*
X542Y740D02*
X549Y740D01*
X282Y739D02*
X289Y739D01*
X542Y739D02*
X549Y739D01*
X282Y738D02*
X289Y738D01*
X542Y738D02*
X549Y738D01*
X282Y737D02*
X289Y737D01*
X542Y737D02*
X549Y737D01*
X282Y736D02*
X289Y736D01*
X542Y736D02*
X549Y736D01*
X282Y735D02*
X289Y735D01*
X542Y735D02*
X549Y735D01*
X282Y734D02*
X289Y734D01*
X542Y734D02*
X549Y734D01*
X282Y733D02*
X289Y733D01*
X542Y733D02*
X549Y733D01*
X282Y732D02*
X289Y732D01*
X542Y732D02*
X549Y732D01*
X282Y731D02*
X289Y731D01*
X542Y731D02*
X549Y731D01*
X282Y730D02*
X289Y730D01*
X542Y730D02*
X549Y730D01*
X282Y729D02*
X289Y729D01*
X542Y729D02*
X549Y729D01*
X282Y728D02*
X289Y728D01*
X542Y728D02*
X549Y728D01*
X282Y727D02*
X289Y727D01*
X542Y727D02*
X549Y727D01*
X282Y726D02*
X289Y726D01*
X542Y726D02*
X549Y726D01*
X282Y725D02*
X289Y725D01*
X542Y725D02*
X549Y725D01*
X282Y724D02*
X289Y724D01*
X542Y724D02*
X549Y724D01*
X282Y723D02*
X289Y723D01*
X542Y723D02*
X549Y723D01*
X282Y722D02*
X289Y722D01*
X542Y722D02*
X549Y722D01*
X282Y721D02*
X289Y721D01*
X542Y721D02*
X549Y721D01*
X282Y720D02*
X289Y720D01*
X542Y720D02*
X549Y720D01*
X282Y719D02*
X289Y719D01*
X542Y719D02*
X549Y719D01*
X282Y718D02*
X289Y718D01*
X542Y718D02*
X549Y718D01*
X282Y717D02*
X289Y717D01*
X542Y717D02*
X549Y717D01*
X282Y716D02*
X289Y716D01*
X542Y716D02*
X549Y716D01*
X282Y715D02*
X289Y715D01*
X542Y715D02*
X549Y715D01*
X282Y714D02*
X289Y714D01*
X542Y714D02*
X549Y714D01*
X282Y713D02*
X289Y713D01*
X542Y713D02*
X549Y713D01*
X282Y712D02*
X289Y712D01*
X542Y712D02*
X549Y712D01*
X282Y711D02*
X289Y711D01*
X542Y711D02*
X549Y711D01*
X282Y710D02*
X289Y710D01*
X542Y710D02*
X549Y710D01*
X282Y709D02*
X289Y709D01*
X542Y709D02*
X549Y709D01*
X282Y708D02*
X289Y708D01*
X542Y708D02*
X549Y708D01*
X282Y707D02*
X289Y707D01*
X542Y707D02*
X549Y707D01*
X282Y706D02*
X289Y706D01*
X542Y706D02*
X549Y706D01*
X282Y705D02*
X289Y705D01*
X542Y705D02*
X549Y705D01*
X282Y704D02*
X289Y704D01*
X542Y704D02*
X549Y704D01*
X282Y703D02*
X289Y703D01*
X542Y703D02*
X549Y703D01*
X282Y702D02*
X289Y702D01*
X542Y702D02*
X549Y702D01*
X282Y701D02*
X289Y701D01*
X542Y701D02*
X549Y701D01*
X282Y700D02*
X289Y700D01*
X542Y700D02*
X549Y700D01*
X282Y699D02*
X289Y699D01*
X542Y699D02*
X549Y699D01*
X282Y698D02*
X289Y698D01*
X542Y698D02*
X549Y698D01*
X282Y697D02*
X289Y697D01*
X542Y697D02*
X549Y697D01*
X282Y696D02*
X289Y696D01*
X542Y696D02*
X549Y696D01*
X282Y695D02*
X289Y695D01*
X542Y695D02*
X549Y695D01*
X282Y694D02*
X289Y694D01*
X542Y694D02*
X549Y694D01*
X282Y693D02*
X289Y693D01*
X542Y693D02*
X549Y693D01*
X282Y692D02*
X289Y692D01*
X542Y692D02*
X549Y692D01*
X282Y691D02*
X289Y691D01*
X542Y691D02*
X549Y691D01*
X282Y690D02*
X289Y690D01*
X542Y690D02*
X549Y690D01*
X282Y689D02*
X289Y689D01*
X542Y689D02*
X549Y689D01*
X282Y688D02*
X289Y688D01*
X542Y688D02*
X549Y688D01*
X282Y687D02*
X289Y687D01*
X542Y687D02*
X549Y687D01*
X282Y686D02*
X289Y686D01*
X542Y686D02*
X549Y686D01*
X282Y685D02*
X289Y685D01*
X542Y685D02*
X549Y685D01*
X282Y684D02*
X289Y684D01*
X542Y684D02*
X549Y684D01*
X282Y683D02*
X289Y683D01*
X542Y683D02*
X549Y683D01*
X282Y682D02*
X289Y682D01*
X542Y682D02*
X549Y682D01*
X282Y681D02*
X289Y681D01*
X542Y681D02*
X549Y681D01*
X282Y680D02*
X289Y680D01*
X542Y680D02*
X549Y680D01*
X282Y679D02*
X289Y679D01*
X542Y679D02*
X549Y679D01*
X282Y678D02*
X289Y678D01*
X542Y678D02*
X549Y678D01*
X282Y677D02*
X289Y677D01*
X542Y677D02*
X549Y677D01*
X282Y676D02*
X289Y676D01*
X542Y676D02*
X549Y676D01*
X282Y675D02*
X289Y675D01*
X542Y675D02*
X549Y675D01*
X282Y674D02*
X289Y674D01*
X542Y674D02*
X549Y674D01*
X282Y673D02*
X289Y673D01*
X542Y673D02*
X549Y673D01*
X282Y672D02*
X289Y672D01*
X542Y672D02*
X549Y672D01*
X282Y671D02*
X289Y671D01*
X542Y671D02*
X549Y671D01*
X282Y670D02*
X289Y670D01*
X542Y670D02*
X549Y670D01*
X282Y669D02*
X289Y669D01*
X542Y669D02*
X549Y669D01*
X282Y668D02*
X289Y668D01*
X542Y668D02*
X549Y668D01*
X282Y667D02*
X289Y667D01*
X542Y667D02*
X549Y667D01*
X282Y666D02*
X289Y666D01*
X542Y666D02*
X549Y666D01*
X282Y665D02*
X289Y665D01*
X542Y665D02*
X549Y665D01*
X282Y664D02*
X289Y664D01*
X542Y664D02*
X549Y664D01*
X282Y663D02*
X289Y663D01*
X542Y663D02*
X549Y663D01*
X282Y662D02*
X289Y662D01*
X542Y662D02*
X549Y662D01*
X282Y661D02*
X289Y661D01*
X542Y661D02*
X549Y661D01*
X282Y660D02*
X289Y660D01*
X542Y660D02*
X549Y660D01*
X282Y659D02*
X289Y659D01*
X542Y659D02*
X549Y659D01*
X282Y658D02*
X289Y658D01*
X542Y658D02*
X549Y658D01*
X282Y657D02*
X289Y657D01*
X542Y657D02*
X549Y657D01*
X282Y656D02*
X289Y656D01*
X542Y656D02*
X549Y656D01*
X282Y655D02*
X289Y655D01*
X542Y655D02*
X549Y655D01*
X282Y654D02*
X289Y654D01*
X542Y654D02*
X549Y654D01*
X282Y653D02*
X289Y653D01*
X542Y653D02*
X549Y653D01*
X282Y652D02*
X289Y652D01*
X542Y652D02*
X549Y652D01*
X282Y651D02*
X289Y651D01*
X542Y651D02*
X549Y651D01*
X282Y650D02*
X289Y650D01*
X542Y650D02*
X549Y650D01*
X282Y649D02*
X289Y649D01*
X542Y649D02*
X549Y649D01*
X282Y648D02*
X289Y648D01*
X542Y648D02*
X549Y648D01*
X282Y647D02*
X289Y647D01*
X542Y647D02*
X549Y647D01*
X282Y646D02*
X289Y646D01*
X542Y646D02*
X549Y646D01*
X282Y645D02*
X289Y645D01*
X542Y645D02*
X549Y645D01*
X282Y644D02*
X289Y644D01*
X542Y644D02*
X549Y644D01*
X282Y643D02*
X289Y643D01*
X542Y643D02*
X549Y643D01*
X282Y642D02*
X289Y642D01*
X542Y642D02*
X549Y642D01*
X282Y641D02*
X289Y641D01*
X542Y641D02*
X549Y641D01*
X282Y640D02*
X289Y640D01*
X542Y640D02*
X549Y640D01*
X282Y639D02*
X289Y639D01*
X542Y639D02*
X549Y639D01*
X282Y638D02*
X289Y638D01*
X542Y638D02*
X549Y638D01*
X282Y637D02*
X289Y637D01*
X542Y637D02*
X549Y637D01*
X282Y636D02*
X289Y636D01*
X542Y636D02*
X549Y636D01*
X282Y635D02*
X289Y635D01*
X542Y635D02*
X549Y635D01*
X282Y634D02*
X289Y634D01*
X542Y634D02*
X549Y634D01*
X282Y633D02*
X289Y633D01*
X542Y633D02*
X549Y633D01*
X282Y632D02*
X289Y632D01*
X542Y632D02*
X549Y632D01*
X282Y631D02*
X289Y631D01*
X542Y631D02*
X549Y631D01*
X282Y630D02*
X289Y630D01*
X542Y630D02*
X549Y630D01*
X282Y629D02*
X289Y629D01*
X542Y629D02*
X549Y629D01*
X282Y628D02*
X289Y628D01*
X542Y628D02*
X549Y628D01*
X282Y627D02*
X289Y627D01*
X542Y627D02*
X549Y627D01*
X282Y626D02*
X289Y626D01*
X542Y626D02*
X549Y626D01*
X282Y625D02*
X289Y625D01*
X542Y625D02*
X549Y625D01*
X282Y624D02*
X289Y624D01*
X542Y624D02*
X549Y624D01*
X282Y623D02*
X289Y623D01*
X542Y623D02*
X549Y623D01*
X282Y622D02*
X289Y622D01*
X542Y622D02*
X549Y622D01*
X282Y621D02*
X289Y621D01*
X542Y621D02*
X549Y621D01*
X282Y620D02*
X289Y620D01*
X542Y620D02*
X549Y620D01*
X282Y619D02*
X289Y619D01*
X542Y619D02*
X549Y619D01*
X282Y618D02*
X289Y618D01*
X542Y618D02*
X549Y618D01*
X282Y617D02*
X289Y617D01*
X542Y617D02*
X549Y617D01*
X282Y616D02*
X289Y616D01*
X542Y616D02*
X549Y616D01*
X282Y615D02*
X289Y615D01*
X542Y615D02*
X549Y615D01*
X282Y614D02*
X289Y614D01*
X542Y614D02*
X549Y614D01*
X282Y613D02*
X289Y613D01*
X542Y613D02*
X549Y613D01*
X282Y612D02*
X289Y612D01*
X542Y612D02*
X549Y612D01*
X282Y611D02*
X289Y611D01*
X542Y611D02*
X549Y611D01*
X282Y610D02*
X289Y610D01*
X542Y610D02*
X549Y610D01*
X282Y609D02*
X289Y609D01*
X542Y609D02*
X549Y609D01*
X282Y608D02*
X289Y608D01*
X542Y608D02*
X549Y608D01*
X282Y607D02*
X289Y607D01*
X542Y607D02*
X549Y607D01*
X282Y606D02*
X289Y606D01*
X542Y606D02*
X549Y606D01*
X282Y605D02*
X289Y605D01*
X542Y605D02*
X549Y605D01*
X282Y604D02*
X289Y604D01*
X542Y604D02*
X549Y604D01*
X282Y603D02*
X289Y603D01*
X542Y603D02*
X549Y603D01*
X282Y602D02*
X289Y602D01*
X542Y602D02*
X549Y602D01*
X282Y601D02*
X289Y601D01*
X542Y601D02*
X549Y601D01*
X282Y600D02*
X289Y600D01*
X542Y600D02*
X549Y600D01*
X282Y599D02*
X289Y599D01*
X542Y599D02*
X549Y599D01*
X282Y598D02*
X289Y598D01*
X282Y597D02*
X289Y597D01*
X282Y596D02*
X289Y596D01*
X282Y595D02*
X289Y595D01*
X282Y594D02*
X289Y594D01*
X282Y593D02*
X289Y593D01*
X282Y592D02*
X289Y592D01*
X282Y591D02*
X289Y591D01*
X282Y590D02*
X289Y590D01*
X282Y589D02*
X289Y589D01*
X282Y588D02*
X289Y588D01*
X282Y587D02*
X289Y587D01*
X282Y586D02*
X289Y586D01*
X282Y585D02*
X289Y585D01*
X282Y584D02*
X289Y584D01*
X282Y583D02*
X289Y583D01*
X282Y582D02*
X289Y582D01*
X282Y581D02*
X289Y581D01*
X282Y580D02*
X289Y580D01*
X282Y579D02*
X289Y579D01*
X282Y578D02*
X289Y578D01*
X282Y577D02*
X289Y577D01*
X282Y576D02*
X289Y576D01*
X282Y575D02*
X289Y575D01*
X282Y574D02*
X289Y574D01*
X282Y573D02*
X289Y573D01*
X282Y572D02*
X289Y572D01*
X282Y571D02*
X289Y571D01*
X282Y570D02*
X289Y570D01*
X282Y569D02*
X289Y569D01*
X282Y568D02*
X289Y568D01*
X282Y567D02*
X289Y567D01*
X282Y566D02*
X289Y566D01*
X282Y565D02*
X289Y565D01*
X282Y564D02*
X289Y564D01*
X282Y563D02*
X289Y563D01*
X282Y562D02*
X289Y562D01*
X282Y561D02*
X289Y561D01*
X282Y560D02*
X289Y560D01*
X282Y559D02*
X289Y559D01*
X282Y558D02*
X289Y558D01*
X282Y557D02*
X289Y557D01*
X282Y556D02*
X289Y556D01*
X282Y555D02*
X289Y555D01*
X282Y554D02*
X289Y554D01*
X282Y553D02*
X289Y553D01*
X282Y552D02*
X289Y552D01*
X282Y551D02*
X289Y551D01*
X282Y550D02*
X289Y550D01*
X282Y549D02*
X289Y549D01*
X282Y548D02*
X289Y548D01*
X282Y547D02*
X289Y547D01*
X282Y546D02*
X289Y546D01*
X282Y545D02*
X289Y545D01*
X282Y544D02*
X289Y544D01*
X282Y543D02*
X289Y543D01*
X282Y542D02*
X289Y542D01*
X282Y541D02*
X289Y541D01*
X282Y540D02*
X289Y540D01*
X282Y539D02*
X289Y539D01*
X282Y538D02*
X289Y538D01*
X282Y537D02*
X289Y537D01*
X282Y536D02*
X289Y536D01*
X282Y535D02*
X289Y535D01*
X282Y534D02*
X289Y534D01*
X282Y533D02*
X289Y533D01*
X282Y532D02*
X289Y532D01*
X282Y531D02*
X289Y531D01*
X282Y530D02*
X289Y530D01*
X282Y529D02*
X289Y529D01*
X282Y528D02*
X289Y528D01*
X282Y527D02*
X289Y527D01*
X282Y526D02*
X289Y526D01*
X282Y525D02*
X289Y525D01*
X282Y524D02*
X289Y524D01*
X282Y523D02*
X289Y523D01*
X282Y522D02*
X289Y522D01*
X282Y521D02*
X289Y521D01*
X282Y520D02*
X289Y520D01*
X282Y519D02*
X289Y519D01*
X282Y518D02*
X289Y518D01*
X282Y517D02*
X289Y517D01*
X282Y516D02*
X289Y516D01*
X282Y515D02*
X289Y515D01*
X282Y514D02*
X289Y514D01*
X282Y513D02*
X289Y513D01*
X282Y512D02*
X289Y512D01*
X282Y511D02*
X289Y511D01*
X282Y510D02*
X289Y510D01*
X282Y509D02*
X289Y509D01*
X282Y508D02*
X289Y508D01*
X282Y507D02*
X289Y507D01*
X282Y506D02*
X289Y506D01*
X282Y505D02*
X289Y505D01*
X282Y504D02*
X289Y504D01*
X282Y503D02*
X289Y503D01*
X282Y502D02*
X289Y502D01*
X282Y501D02*
X289Y501D01*
X282Y500D02*
X289Y500D01*
X282Y499D02*
X289Y499D01*
X282Y498D02*
X289Y498D01*
X282Y497D02*
X289Y497D01*
X282Y496D02*
X289Y496D01*
X282Y495D02*
X289Y495D01*
X282Y494D02*
X289Y494D01*
X282Y493D02*
X289Y493D01*
X282Y492D02*
X289Y492D01*
X282Y491D02*
X289Y491D01*
X282Y490D02*
X289Y490D01*
X282Y489D02*
X289Y489D01*
X282Y488D02*
X289Y488D01*
X282Y487D02*
X289Y487D01*
X282Y486D02*
X289Y486D01*
X282Y485D02*
X289Y485D01*
X282Y484D02*
X289Y484D01*
X282Y483D02*
X289Y483D01*
X282Y482D02*
X289Y482D01*
X282Y481D02*
X289Y481D01*
X282Y480D02*
X289Y480D01*
X282Y479D02*
X289Y479D01*
X282Y478D02*
X289Y478D01*
X282Y477D02*
X289Y477D01*
X282Y476D02*
X289Y476D01*
X282Y475D02*
X289Y475D01*
X282Y474D02*
X289Y474D01*
X282Y473D02*
X289Y473D01*
X282Y472D02*
X289Y472D01*
X282Y471D02*
X289Y471D01*
X282Y470D02*
X289Y470D01*
X282Y469D02*
X289Y469D01*
X282Y468D02*
X289Y468D01*
X282Y467D02*
X289Y467D01*
X282Y466D02*
X289Y466D01*
X282Y465D02*
X289Y465D01*
X282Y464D02*
X289Y464D01*
X282Y463D02*
X289Y463D01*
X282Y462D02*
X289Y462D01*
X282Y461D02*
X289Y461D01*
X282Y460D02*
X289Y460D01*
X282Y459D02*
X289Y459D01*
X282Y458D02*
X289Y458D01*
X282Y457D02*
X289Y457D01*
X282Y456D02*
X289Y456D01*
X282Y455D02*
X289Y455D01*
X282Y454D02*
X289Y454D01*
X282Y453D02*
X289Y453D01*
X282Y452D02*
X289Y452D01*
X282Y451D02*
X289Y451D01*
X282Y450D02*
X289Y450D01*
X282Y449D02*
X289Y449D01*
X282Y448D02*
X289Y448D01*
X282Y447D02*
X289Y447D01*
X282Y446D02*
X289Y446D01*
X282Y445D02*
X289Y445D01*
X282Y444D02*
X289Y444D01*
X282Y443D02*
X289Y443D01*
X282Y442D02*
X289Y442D01*
X282Y441D02*
X289Y441D01*
X282Y440D02*
X289Y440D01*
X282Y439D02*
X289Y439D01*
X282Y438D02*
X289Y438D01*
X282Y437D02*
X289Y437D01*
X282Y436D02*
X289Y436D01*
X282Y435D02*
X289Y435D01*
X282Y434D02*
X289Y434D01*
X282Y433D02*
X289Y433D01*
X282Y432D02*
X289Y432D01*
X282Y431D02*
X289Y431D01*
X282Y430D02*
X289Y430D01*
X282Y429D02*
X289Y429D01*
X282Y428D02*
X289Y428D01*
X282Y427D02*
X289Y427D01*
X282Y426D02*
X289Y426D01*
X542Y426D02*
X549Y426D01*
X282Y425D02*
X289Y425D01*
X542Y425D02*
X549Y425D01*
X282Y424D02*
X289Y424D01*
X542Y424D02*
X549Y424D01*
X282Y423D02*
X289Y423D01*
X542Y423D02*
X549Y423D01*
X282Y422D02*
X289Y422D01*
X542Y422D02*
X549Y422D01*
X282Y421D02*
X289Y421D01*
X542Y421D02*
X549Y421D01*
X282Y420D02*
X289Y420D01*
X542Y420D02*
X549Y420D01*
X282Y419D02*
X289Y419D01*
X542Y419D02*
X549Y419D01*
X282Y418D02*
X289Y418D01*
X542Y418D02*
X549Y418D01*
X282Y417D02*
X289Y417D01*
X542Y417D02*
X549Y417D01*
X282Y416D02*
X289Y416D01*
X542Y416D02*
X549Y416D01*
X282Y415D02*
X289Y415D01*
X542Y415D02*
X549Y415D01*
X282Y414D02*
X289Y414D01*
X542Y414D02*
X549Y414D01*
X282Y413D02*
X289Y413D01*
X542Y413D02*
X549Y413D01*
X282Y412D02*
X289Y412D01*
X542Y412D02*
X549Y412D01*
X282Y411D02*
X289Y411D01*
X542Y411D02*
X549Y411D01*
X282Y410D02*
X289Y410D01*
X542Y410D02*
X549Y410D01*
X282Y409D02*
X289Y409D01*
X542Y409D02*
X549Y409D01*
X282Y408D02*
X289Y408D01*
X542Y408D02*
X549Y408D01*
X282Y407D02*
X289Y407D01*
X542Y407D02*
X549Y407D01*
X282Y406D02*
X289Y406D01*
X542Y406D02*
X549Y406D01*
X282Y405D02*
X289Y405D01*
X542Y405D02*
X549Y405D01*
X282Y404D02*
X289Y404D01*
X542Y404D02*
X549Y404D01*
X282Y403D02*
X289Y403D01*
X542Y403D02*
X549Y403D01*
X282Y402D02*
X289Y402D01*
X542Y402D02*
X549Y402D01*
X282Y401D02*
X289Y401D01*
X542Y401D02*
X549Y401D01*
X282Y400D02*
X289Y400D01*
X542Y400D02*
X549Y400D01*
X282Y399D02*
X289Y399D01*
X542Y399D02*
X549Y399D01*
X282Y398D02*
X289Y398D01*
X542Y398D02*
X549Y398D01*
X282Y397D02*
X289Y397D01*
X542Y397D02*
X549Y397D01*
X282Y396D02*
X289Y396D01*
X542Y396D02*
X549Y396D01*
X282Y395D02*
X289Y395D01*
X542Y395D02*
X549Y395D01*
X282Y394D02*
X289Y394D01*
X542Y394D02*
X549Y394D01*
X282Y393D02*
X289Y393D01*
X542Y393D02*
X549Y393D01*
X282Y392D02*
X289Y392D01*
X542Y392D02*
X549Y392D01*
X282Y391D02*
X289Y391D01*
X542Y391D02*
X549Y391D01*
X282Y390D02*
X289Y390D01*
X542Y390D02*
X549Y390D01*
X282Y389D02*
X289Y389D01*
X542Y389D02*
X549Y389D01*
X282Y388D02*
X289Y388D01*
X542Y388D02*
X549Y388D01*
X282Y387D02*
X289Y387D01*
X542Y387D02*
X549Y387D01*
X282Y386D02*
X289Y386D01*
X542Y386D02*
X549Y386D01*
X282Y385D02*
X289Y385D01*
X542Y385D02*
X549Y385D01*
X282Y384D02*
X289Y384D01*
X542Y384D02*
X549Y384D01*
X282Y383D02*
X289Y383D01*
X542Y383D02*
X549Y383D01*
X282Y382D02*
X289Y382D01*
X542Y382D02*
X549Y382D01*
X282Y381D02*
X289Y381D01*
X542Y381D02*
X549Y381D01*
X282Y380D02*
X289Y380D01*
X542Y380D02*
X549Y380D01*
X282Y379D02*
X289Y379D01*
X542Y379D02*
X549Y379D01*
X282Y378D02*
X289Y378D01*
X542Y378D02*
X549Y378D01*
X282Y377D02*
X289Y377D01*
X542Y377D02*
X549Y377D01*
X282Y376D02*
X289Y376D01*
X542Y376D02*
X549Y376D01*
X282Y375D02*
X289Y375D01*
X542Y375D02*
X549Y375D01*
X282Y374D02*
X289Y374D01*
X542Y374D02*
X549Y374D01*
X282Y373D02*
X289Y373D01*
X542Y373D02*
X549Y373D01*
X282Y372D02*
X289Y372D01*
X542Y372D02*
X549Y372D01*
X282Y371D02*
X289Y371D01*
X542Y371D02*
X549Y371D01*
X282Y370D02*
X289Y370D01*
X542Y370D02*
X549Y370D01*
X282Y369D02*
X289Y369D01*
X542Y369D02*
X549Y369D01*
X282Y368D02*
X289Y368D01*
X542Y368D02*
X549Y368D01*
X282Y367D02*
X289Y367D01*
X542Y367D02*
X549Y367D01*
X282Y366D02*
X289Y366D01*
X542Y366D02*
X549Y366D01*
X282Y365D02*
X289Y365D01*
X542Y365D02*
X549Y365D01*
X282Y364D02*
X289Y364D01*
X542Y364D02*
X549Y364D01*
X282Y363D02*
X289Y363D01*
X542Y363D02*
X549Y363D01*
X282Y362D02*
X289Y362D01*
X542Y362D02*
X549Y362D01*
X282Y361D02*
X289Y361D01*
X542Y361D02*
X549Y361D01*
X282Y360D02*
X289Y360D01*
X542Y360D02*
X549Y360D01*
X282Y359D02*
X289Y359D01*
X542Y359D02*
X549Y359D01*
X282Y358D02*
X289Y358D01*
X542Y358D02*
X549Y358D01*
X282Y357D02*
X289Y357D01*
X542Y357D02*
X549Y357D01*
X282Y356D02*
X289Y356D01*
X542Y356D02*
X549Y356D01*
X282Y355D02*
X289Y355D01*
X542Y355D02*
X549Y355D01*
X282Y354D02*
X289Y354D01*
X542Y354D02*
X549Y354D01*
X282Y353D02*
X289Y353D01*
X542Y353D02*
X549Y353D01*
X282Y352D02*
X289Y352D01*
X542Y352D02*
X549Y352D01*
X282Y351D02*
X289Y351D01*
X542Y351D02*
X549Y351D01*
X282Y350D02*
X289Y350D01*
X542Y350D02*
X549Y350D01*
X282Y349D02*
X289Y349D01*
X542Y349D02*
X549Y349D01*
X282Y348D02*
X289Y348D01*
X542Y348D02*
X549Y348D01*
X282Y347D02*
X289Y347D01*
X542Y347D02*
X549Y347D01*
X282Y346D02*
X289Y346D01*
X542Y346D02*
X549Y346D01*
X282Y345D02*
X289Y345D01*
X542Y345D02*
X549Y345D01*
X282Y344D02*
X289Y344D01*
X542Y344D02*
X549Y344D01*
X282Y343D02*
X289Y343D01*
X542Y343D02*
X549Y343D01*
X282Y342D02*
X289Y342D01*
X542Y342D02*
X549Y342D01*
X282Y341D02*
X289Y341D01*
X542Y341D02*
X549Y341D01*
X282Y340D02*
X289Y340D01*
X542Y340D02*
X549Y340D01*
X282Y339D02*
X289Y339D01*
X542Y339D02*
X549Y339D01*
X282Y338D02*
X289Y338D01*
X542Y338D02*
X549Y338D01*
X282Y337D02*
X289Y337D01*
X542Y337D02*
X549Y337D01*
X282Y336D02*
X289Y336D01*
X542Y336D02*
X549Y336D01*
X282Y335D02*
X289Y335D01*
X542Y335D02*
X549Y335D01*
X282Y334D02*
X289Y334D01*
X542Y334D02*
X549Y334D01*
X282Y333D02*
X289Y333D01*
X542Y333D02*
X549Y333D01*
X282Y332D02*
X289Y332D01*
X542Y332D02*
X549Y332D01*
X282Y331D02*
X289Y331D01*
X542Y331D02*
X549Y331D01*
X282Y330D02*
X289Y330D01*
X542Y330D02*
X549Y330D01*
X282Y329D02*
X289Y329D01*
X542Y329D02*
X549Y329D01*
X282Y328D02*
X289Y328D01*
X542Y328D02*
X549Y328D01*
X282Y327D02*
X289Y327D01*
X542Y327D02*
X549Y327D01*
X282Y326D02*
X289Y326D01*
X542Y326D02*
X549Y326D01*
X282Y325D02*
X289Y325D01*
X542Y325D02*
X549Y325D01*
X282Y324D02*
X289Y324D01*
X542Y324D02*
X549Y324D01*
X282Y323D02*
X289Y323D01*
X542Y323D02*
X549Y323D01*
X282Y322D02*
X289Y322D01*
X542Y322D02*
X549Y322D01*
X282Y321D02*
X289Y321D01*
X542Y321D02*
X549Y321D01*
X282Y320D02*
X289Y320D01*
X542Y320D02*
X549Y320D01*
X282Y319D02*
X289Y319D01*
X542Y319D02*
X549Y319D01*
X282Y318D02*
X289Y318D01*
X542Y318D02*
X549Y318D01*
X282Y317D02*
X289Y317D01*
X542Y317D02*
X549Y317D01*
X282Y316D02*
X289Y316D01*
X542Y316D02*
X549Y316D01*
X282Y315D02*
X289Y315D01*
X542Y315D02*
X549Y315D01*
X282Y314D02*
X289Y314D01*
X542Y314D02*
X549Y314D01*
X282Y313D02*
X289Y313D01*
X542Y313D02*
X549Y313D01*
X282Y312D02*
X289Y312D01*
X542Y312D02*
X549Y312D01*
X282Y311D02*
X289Y311D01*
X542Y311D02*
X549Y311D01*
X282Y310D02*
X289Y310D01*
X542Y310D02*
X549Y310D01*
X282Y309D02*
X289Y309D01*
X542Y309D02*
X549Y309D01*
X282Y308D02*
X289Y308D01*
X542Y308D02*
X549Y308D01*
X282Y307D02*
X289Y307D01*
X542Y307D02*
X549Y307D01*
X282Y306D02*
X289Y306D01*
X542Y306D02*
X549Y306D01*
X282Y305D02*
X289Y305D01*
X542Y305D02*
X549Y305D01*
X282Y304D02*
X289Y304D01*
X542Y304D02*
X549Y304D01*
X282Y303D02*
X289Y303D01*
X542Y303D02*
X549Y303D01*
X282Y302D02*
X289Y302D01*
X542Y302D02*
X549Y302D01*
X282Y301D02*
X289Y301D01*
X542Y301D02*
X549Y301D01*
X282Y300D02*
X289Y300D01*
X542Y300D02*
X549Y300D01*
X282Y299D02*
X289Y299D01*
X542Y299D02*
X549Y299D01*
X282Y298D02*
X289Y298D01*
X542Y298D02*
X549Y298D01*
X282Y297D02*
X289Y297D01*
X542Y297D02*
X549Y297D01*
X282Y296D02*
X289Y296D01*
X542Y296D02*
X549Y296D01*
X282Y295D02*
X289Y295D01*
X542Y295D02*
X549Y295D01*
X282Y294D02*
X289Y294D01*
X542Y294D02*
X549Y294D01*
X282Y293D02*
X289Y293D01*
X542Y293D02*
X549Y293D01*
X282Y292D02*
X289Y292D01*
X542Y292D02*
X549Y292D01*
X282Y291D02*
X289Y291D01*
X542Y291D02*
X549Y291D01*
X282Y290D02*
X289Y290D01*
X542Y290D02*
X549Y290D01*
X282Y289D02*
X289Y289D01*
X542Y289D02*
X549Y289D01*
X282Y288D02*
X289Y288D01*
X542Y288D02*
X549Y288D01*
X282Y287D02*
X289Y287D01*
X542Y287D02*
X549Y287D01*
X282Y286D02*
X289Y286D01*
X542Y286D02*
X549Y286D01*
X282Y285D02*
X289Y285D01*
X542Y285D02*
X549Y285D01*
X282Y284D02*
X289Y284D01*
X542Y284D02*
X549Y284D01*
X282Y283D02*
X289Y283D01*
X542Y283D02*
X549Y283D01*
X282Y282D02*
X289Y282D01*
X542Y282D02*
X549Y282D01*
X282Y281D02*
X289Y281D01*
X542Y281D02*
X549Y281D01*
X282Y280D02*
X289Y280D01*
X542Y280D02*
X549Y280D01*
X282Y279D02*
X289Y279D01*
X542Y279D02*
X549Y279D01*
X282Y278D02*
X289Y278D01*
X542Y278D02*
X549Y278D01*
X282Y277D02*
X289Y277D01*
X542Y277D02*
X549Y277D01*
X282Y276D02*
X289Y276D01*
X542Y276D02*
X549Y276D01*
X282Y275D02*
X289Y275D01*
X542Y275D02*
X549Y275D01*
X282Y274D02*
X289Y274D01*
X542Y274D02*
X549Y274D01*
X282Y273D02*
X289Y273D01*
X542Y273D02*
X549Y273D01*
X282Y272D02*
X289Y272D01*
X542Y272D02*
X549Y272D01*
X282Y271D02*
X289Y271D01*
X542Y271D02*
X549Y271D01*
X282Y270D02*
X289Y270D01*
X542Y270D02*
X549Y270D01*
X282Y269D02*
X289Y269D01*
X542Y269D02*
X549Y269D01*
X282Y268D02*
X289Y268D01*
X542Y268D02*
X549Y268D01*
X282Y267D02*
X289Y267D01*
X542Y267D02*
X549Y267D01*
X282Y266D02*
X289Y266D01*
X542Y266D02*
X549Y266D01*
X282Y265D02*
X289Y265D01*
X542Y265D02*
X549Y265D01*
X282Y264D02*
X289Y264D01*
X542Y264D02*
X549Y264D01*
X282Y263D02*
X289Y263D01*
X542Y263D02*
X549Y263D01*
X282Y262D02*
X289Y262D01*
X542Y262D02*
X549Y262D01*
X282Y261D02*
X289Y261D01*
X542Y261D02*
X549Y261D01*
X282Y260D02*
X289Y260D01*
X542Y260D02*
X549Y260D01*
X282Y259D02*
X289Y259D01*
X542Y259D02*
X549Y259D01*
X282Y258D02*
X289Y258D01*
X542Y258D02*
X549Y258D01*
X282Y257D02*
X289Y257D01*
X542Y257D02*
X549Y257D01*
X282Y256D02*
X289Y256D01*
X542Y256D02*
X549Y256D01*
X282Y255D02*
X289Y255D01*
X542Y255D02*
X549Y255D01*
X282Y254D02*
X289Y254D01*
X542Y254D02*
X549Y254D01*
X282Y253D02*
X289Y253D01*
X542Y253D02*
X549Y253D01*
X282Y252D02*
X289Y252D01*
X542Y252D02*
X549Y252D01*
X282Y251D02*
X289Y251D01*
X542Y251D02*
X549Y251D01*
X282Y250D02*
X289Y250D01*
X542Y250D02*
X549Y250D01*
X282Y249D02*
X289Y249D01*
X542Y249D02*
X549Y249D01*
X282Y248D02*
X289Y248D01*
X542Y248D02*
X549Y248D01*
X282Y247D02*
X289Y247D01*
X542Y247D02*
X549Y247D01*
X282Y246D02*
X289Y246D01*
X542Y246D02*
X549Y246D01*
X282Y245D02*
X289Y245D01*
X542Y245D02*
X549Y245D01*
X282Y244D02*
X289Y244D01*
X542Y244D02*
X549Y244D01*
X282Y243D02*
X289Y243D01*
X542Y243D02*
X549Y243D01*
X282Y242D02*
X289Y242D01*
X542Y242D02*
X549Y242D01*
X282Y241D02*
X289Y241D01*
X542Y241D02*
X549Y241D01*
X282Y240D02*
X289Y240D01*
X542Y240D02*
X549Y240D01*
X282Y239D02*
X289Y239D01*
X542Y239D02*
X549Y239D01*
X282Y238D02*
X289Y238D01*
X542Y238D02*
X549Y238D01*
X282Y237D02*
X289Y237D01*
X542Y237D02*
X549Y237D01*
X282Y236D02*
X289Y236D01*
X542Y236D02*
X549Y236D01*
X282Y235D02*
X289Y235D01*
X542Y235D02*
X549Y235D01*
X282Y234D02*
X289Y234D01*
X542Y234D02*
X549Y234D01*
X282Y233D02*
X289Y233D01*
X542Y233D02*
X549Y233D01*
X282Y232D02*
X289Y232D01*
X542Y232D02*
X549Y232D01*
X282Y231D02*
X289Y231D01*
X542Y231D02*
X549Y231D01*
X282Y230D02*
X289Y230D01*
X542Y230D02*
X549Y230D01*
X282Y229D02*
X289Y229D01*
X542Y229D02*
X549Y229D01*
X282Y228D02*
X289Y228D01*
X542Y228D02*
X549Y228D01*
X282Y227D02*
X289Y227D01*
X542Y227D02*
X549Y227D01*
X282Y226D02*
X289Y226D01*
X542Y226D02*
X549Y226D01*
X282Y225D02*
X289Y225D01*
X542Y225D02*
X549Y225D01*
X282Y224D02*
X289Y224D01*
X542Y224D02*
X549Y224D01*
X282Y223D02*
X289Y223D01*
X542Y223D02*
X549Y223D01*
X282Y222D02*
X289Y222D01*
X542Y222D02*
X549Y222D01*
X282Y221D02*
X289Y221D01*
X542Y221D02*
X549Y221D01*
X282Y220D02*
X289Y220D01*
X542Y220D02*
X549Y220D01*
X282Y219D02*
X289Y219D01*
X542Y219D02*
X549Y219D01*
X282Y218D02*
X289Y218D01*
X542Y218D02*
X549Y218D01*
X282Y217D02*
X289Y217D01*
X542Y217D02*
X549Y217D01*
X282Y216D02*
X289Y216D01*
X542Y216D02*
X549Y216D01*
X282Y215D02*
X289Y215D01*
X542Y215D02*
X549Y215D01*
X282Y214D02*
X289Y214D01*
X542Y214D02*
X549Y214D01*
X282Y213D02*
X289Y213D01*
X542Y213D02*
X549Y213D01*
X282Y212D02*
X289Y212D01*
X542Y212D02*
X549Y212D01*
X282Y211D02*
X289Y211D01*
X542Y211D02*
X549Y211D01*
X282Y210D02*
X289Y210D01*
X542Y210D02*
X549Y210D01*
X282Y209D02*
X289Y209D01*
X542Y209D02*
X549Y209D01*
X282Y208D02*
X289Y208D01*
X542Y208D02*
X549Y208D01*
X282Y207D02*
X289Y207D01*
X542Y207D02*
X549Y207D01*
X282Y206D02*
X289Y206D01*
X542Y206D02*
X549Y206D01*
X282Y205D02*
X289Y205D01*
X542Y205D02*
X549Y205D01*
X282Y204D02*
X289Y204D01*
X542Y204D02*
X549Y204D01*
X282Y203D02*
X289Y203D01*
X542Y203D02*
X549Y203D01*
X282Y202D02*
X289Y202D01*
X542Y202D02*
X549Y202D01*
X282Y201D02*
X289Y201D01*
X542Y201D02*
X549Y201D01*
X282Y200D02*
X289Y200D01*
X542Y200D02*
X549Y200D01*
X282Y199D02*
X289Y199D01*
X542Y199D02*
X549Y199D01*
X282Y198D02*
X289Y198D01*
X542Y198D02*
X549Y198D01*
X282Y197D02*
X289Y197D01*
X542Y197D02*
X549Y197D01*
X282Y196D02*
X289Y196D01*
X542Y196D02*
X549Y196D01*
X282Y195D02*
X289Y195D01*
X542Y195D02*
X549Y195D01*
X282Y194D02*
X289Y194D01*
X542Y194D02*
X549Y194D01*
X282Y193D02*
X289Y193D01*
X542Y193D02*
X549Y193D01*
X282Y192D02*
X289Y192D01*
X542Y192D02*
X549Y192D01*
X282Y191D02*
X289Y191D01*
X542Y191D02*
X549Y191D01*
X282Y190D02*
X289Y190D01*
X542Y190D02*
X549Y190D01*
X282Y189D02*
X289Y189D01*
X542Y189D02*
X549Y189D01*
X282Y188D02*
X289Y188D01*
X542Y188D02*
X549Y188D01*
X282Y187D02*
X289Y187D01*
X542Y187D02*
X549Y187D01*
X282Y186D02*
X289Y186D01*
X542Y186D02*
X549Y186D01*
X282Y185D02*
X289Y185D01*
X542Y185D02*
X549Y185D01*
X282Y184D02*
X289Y184D01*
X542Y184D02*
X549Y184D01*
X282Y183D02*
X289Y183D01*
X542Y183D02*
X549Y183D01*
X282Y182D02*
X289Y182D01*
X542Y182D02*
X549Y182D01*
X282Y181D02*
X289Y181D01*
X542Y181D02*
X549Y181D01*
X282Y180D02*
X289Y180D01*
X542Y180D02*
X549Y180D01*
X282Y179D02*
X289Y179D01*
X542Y179D02*
X549Y179D01*
X282Y178D02*
X289Y178D01*
X542Y178D02*
X549Y178D01*
X282Y177D02*
X289Y177D01*
X542Y177D02*
X549Y177D01*
X282Y176D02*
X289Y176D01*
X542Y176D02*
X549Y176D01*
X282Y175D02*
X289Y175D01*
X542Y175D02*
X549Y175D01*
X282Y174D02*
X289Y174D01*
X542Y174D02*
X549Y174D01*
X282Y173D02*
X289Y173D01*
X542Y173D02*
X549Y173D01*
X282Y172D02*
X289Y172D01*
X542Y172D02*
X549Y172D01*
X282Y171D02*
X289Y171D01*
X542Y171D02*
X549Y171D01*
X282Y170D02*
X289Y170D01*
X542Y170D02*
X549Y170D01*
X282Y169D02*
X289Y169D01*
X542Y169D02*
X549Y169D01*
X282Y168D02*
X289Y168D01*
X542Y168D02*
X549Y168D01*
X282Y167D02*
X289Y167D01*
X542Y167D02*
X549Y167D01*
X282Y166D02*
X289Y166D01*
X542Y166D02*
X549Y166D01*
X282Y165D02*
X289Y165D01*
X542Y165D02*
X549Y165D01*
X282Y164D02*
X289Y164D01*
X542Y164D02*
X549Y164D01*
X282Y163D02*
X289Y163D01*
X541Y163D02*
X549Y163D01*
X282Y162D02*
X549Y162D01*
X282Y161D02*
X549Y161D01*
X282Y160D02*
X549Y160D01*
X282Y159D02*
X549Y159D01*
X282Y158D02*
X549Y158D01*
X282Y157D02*
X549Y157D01*
X282Y156D02*
X549Y156D01*
X282Y155D02*
X548Y155D01*
D02*
G04 End of Silk0*
M02*